<?xml version="1.0" encoding="UTF-8"?>
<svg width="216px" height="46px" viewBox="0 0 216 46" version="1.1" xmlns="http://www.w3.org/2000/svg" xmlns:xlink="http://www.w3.org/1999/xlink">
    <!-- Generator: Sketch 57.1 (83088) - https://sketch.com -->
    <title>Logo/Color</title>
    <desc>Created with Sketch.</desc>
    <g id="Logo/Color" stroke="none" stroke-width="1" fill="none" fill-rule="evenodd">
        <g id="Lynx_logo_pms">
            <polygon id="Fill-1" fill="#004B86" points="0 46 45.5901061 46 45.5901061 0.247692308 0 0.247692308"></polygon>
            <polygon id="Fill-2" fill="#004B86" points="56.8168163 46 102.417502 46 102.417502 0.247692308 56.8168163 0.247692308"></polygon>
            <polygon id="Fill-3" fill="#004B86" points="113.668898 46 159.262531 46 159.262531 0.247692308 113.668898 0.247692308"></polygon>
            <polygon id="Fill-4" fill="#004B86" points="170.317322 46 215.910955 46 215.910955 0.247692308 170.317322 0.247692308"></polygon>
            <path d="M21.8547918,28.2661154 C21.8547918,30.0972692 21.972049,31.8665 22.5609796,32.5715385 C23.0291265,33.0421538 23.966302,33.4561538 27.2027755,33.4561538 C31.6700082,33.4561538 32.6098286,33.1589231 34.3766204,28.9154231 C34.8421224,28.6190769 35.6682122,28.681 36.0164571,29.1507308 C35.7819429,31.3348462 35.0210939,34.4035769 34.3149061,35.8755769 C32.7306122,35.8127692 31.0264163,35.7579231 29.3142857,35.7579231 C27.6718041,35.7021923 26.0910367,35.7021923 24.6169469,35.7021923 L18.7382204,35.7021923 C16.3930776,35.7021923 14.1510857,35.7579231 12.0395755,35.8755769 C11.6269714,35.6402692 11.5132408,34.5203462 11.9743347,34.1682692 L13.1557224,34.0506154 C15.3289469,33.7533846 15.5079184,32.9245 15.5079184,29.0330769 L15.5079184,16.7687692 C15.5079184,12.8773462 15.3289469,12.052 13.1557224,11.8131538 L11.8059429,11.6371154 C11.3307429,11.2806154 11.4506449,10.1615769 11.8641306,9.92626923 C14.1510857,10.0439231 16.3930776,10.1023077 18.7382204,10.1023077 C20.9766857,10.1023077 23.2116245,10.0439231 25.3231347,9.92626923 C25.7330939,10.1615769 25.8565224,11.2806154 25.3883755,11.6371154 L24.2034612,11.7547692 C22.0337633,12.052 21.8547918,12.8773462 21.8547918,16.7687692 L21.8547918,28.2661154" id="Fill-5" fill="#FFFFFE"></path>
            <path d="M86.7129796,34.0992692 C87.1820082,34.4584231 87.064751,35.5783462 86.6477388,35.8065769 C84.3025959,35.6951154 82.0747102,35.6331923 79.8397714,35.6331923 C77.4875755,35.6331923 75.2491102,35.6951154 72.8378449,35.8065769 C72.4314122,35.5783462 72.3115102,34.4584231 72.7867102,34.0992692 L74.2537469,33.9267692 C76.4331429,33.6843846 76.6024163,32.8616923 76.6024163,28.9711538 L76.6024163,27.7893077 C76.6024163,26.3730385 76.0752,24.9558846 75.0181224,23.0123846 L70.5508898,15.0508462 C69.146449,12.5765769 68.6677224,12.0413846 66.9115102,11.6884231 L66.2053224,11.5716538 C65.7883102,11.2151538 65.7883102,10.0961154 66.3737143,9.85726923 C68.5504653,9.97846154 70.3754449,10.0368462 72.1387102,10.0368462 C74.373649,10.0368462 76.5433469,9.97846154 78.5993143,9.85726923 C79.1917714,10.0961154 79.1917714,11.2151538 78.7756408,11.5716538 L78.1346939,11.6884231 C76.9568327,11.9237308 76.4886857,12.0997692 76.4886857,12.4562692 C76.4886857,12.8083462 76.7223184,13.4576538 77.311249,14.6359615 C78.6654367,17.3490769 80.3661061,20.355 81.5439673,22.5975 C82.5984,20.8318077 83.7136653,18.7653462 85.4257959,15.5833846 C86.4238041,13.7548846 86.8928327,12.8083462 86.8928327,12.5146538 C86.8928327,12.0997692 86.6001306,11.9237308 85.6594286,11.7476923 L84.7125551,11.5716538 C84.127151,11.0975 84.127151,10.1545 84.7125551,9.85726923 C86.9474939,9.97846154 88.1218286,10.0368462 89.5412571,10.0368462 C90.9465796,10.0368462 92.3580735,9.97846154 94.0049633,9.85726923 C94.4731102,10.2756923 94.4731102,11.1603077 94.1283918,11.5716538 L93.0642612,11.8060769 C91.0638367,12.2209615 90.4158367,12.8083462 88.3598694,16.1115 L85.1877551,21.1847692 C83.8379755,23.3060769 82.9563429,25.3707692 82.9563429,26.6074615 L82.9563429,28.9711538 C82.9563429,32.8616923 83.1282612,33.6843846 85.3014857,33.9267692 L86.7129796,34.0992692" id="Fill-6" fill="#FFFFFE"></path>
            <path d="M149.147559,29.1162308 C149.147559,30.2980769 149.147559,35.0732308 149.257763,36.0206538 C149.085845,36.2550769 148.438727,36.5523077 148.142498,36.5523077 C147.969698,36.5523077 147.794253,36.5523077 147.564147,36.4903846 C146.968163,35.6676923 145.910204,34.3690769 142.383673,30.6501538 L133.450971,21.0980769 C131.391478,18.8555769 129.924441,17.204 129.218253,16.6166154 C129.097469,17.8533077 129.097469,19.7985769 129.097469,21.6270769 L129.097469,25.5777692 C129.097469,28.1139615 129.276441,30.0627692 129.339037,30.7678077 C129.507429,33.0695769 129.924441,33.8913846 131.745894,34.0718462 L133.102727,34.1886154 C133.570873,34.5415769 133.570873,35.6057692 132.975771,35.903 C130.981518,35.7853462 129.635265,35.7234231 127.930188,35.7234231 C126.228637,35.7234231 125.106318,35.7853462 122.864327,35.903 C122.33711,35.6676923 122.226906,34.5415769 122.754122,34.1886154 L124.107429,34.0161154 C125.74991,33.7188846 126.101682,32.9519231 126.280653,30.8306154 C126.338841,30.0627692 126.452571,28.1139615 126.452571,25.5777692 L126.452571,17.6188846 C126.452571,14.2564615 126.338841,13.6062692 125.74991,12.9012308 C125.337306,12.4279615 123.632229,11.9546923 123.043298,11.8370385 L122.516082,11.661 C122.106122,11.3053846 122.226906,10.1270769 122.695053,9.95103846 C124.927347,10.1270769 126.807869,10.1270769 128.460931,10.1270769 C129.745469,10.1270769 130.629747,10.0678077 132.327771,9.95103846 C132.862041,11.3053846 133.977306,12.9605 136.856718,15.9664231 L142.204702,21.6854615 C143.441633,22.9849615 145.731233,25.3424615 146.379233,25.875 C146.499135,25.4052692 146.499135,24.9284615 146.499135,23.6342692 L146.499135,20.2727308 C146.499135,17.7356538 146.320163,15.7868462 146.261976,15.0782692 C146.090057,12.7809231 145.680098,12.0166154 144.088751,11.8370385 L142.504457,11.661 C142.03631,11.3053846 142.03631,10.2447308 142.621714,9.95103846 C144.49871,10.0678077 145.852016,10.1270769 147.673469,10.1270769 C149.378547,10.1270769 150.501747,10.0678077 152.726106,9.95103846 C153.253322,10.1854615 153.373224,11.3053846 152.843363,11.661 L151.496229,11.8370385 C149.853747,12.1307308 149.436735,12.9012308 149.316833,15.0234231 C149.257763,15.7868462 149.147559,17.7356538 149.147559,20.2727308 L149.147559,29.1162308" id="Fill-7" fill="#FFFFFE"></path>
            <path d="M208.723886,34.2098462 C209.199086,34.5070769 209.199086,35.6889231 208.664816,35.9233462 C206.144229,35.8065769 204.37391,35.7437692 201.963527,35.7437692 C199.790302,35.7437692 197.617078,35.8065769 195.268408,35.9233462 C194.731494,35.7437692 194.441437,34.6247308 195.082384,34.2098462 L196.314906,34.0373462 C196.852702,33.9196923 197.379037,33.6843846 197.379037,33.3252308 C197.379037,33.0899231 197.262661,32.7378462 196.377502,31.556 C195.615771,30.4988846 192.678171,26.2483077 191.972865,25.4813462 C191.266678,26.3730385 188.08751,31.0862692 187.388376,32.3848846 C187.151216,32.7378462 187.033959,33.0899231 187.033959,33.2695 C187.033959,33.6843846 187.388376,33.9745385 188.029322,34.0373462 L189.0864,34.2098462 C189.620669,34.569 189.5616,35.7437692 188.972669,35.9233462 C186.741257,35.8065769 185.439086,35.7437692 183.917388,35.7437692 C182.154122,35.7437692 180.569829,35.8065769 178.68578,35.9233462 C178.159445,35.7437692 178.038661,34.5070769 178.565878,34.2098462 L179.622955,34.0373462 C181.79618,33.6224615 183.039282,32.6821154 184.450776,31.1481923 C185.618939,29.7310385 187.678433,27.2576538 189.620669,24.4251154 C189.971559,23.8934615 190.319804,23.4794615 190.319804,23.2441538 C190.319804,23.0088462 190.088816,22.5948462 189.740571,22.1206923 C188.318498,20.0613077 185.328882,16.1672308 183.6864,14.0450385 C182.622269,12.6287692 181.685976,12.2731538 179.801927,11.9201923 L178.744849,11.6822308 C178.269649,11.2708846 178.327837,10.0925769 178.974955,9.97492308 C180.449045,10.0925769 182.976686,10.1509615 185.439086,10.1509615 C188.914482,10.1509615 190.498776,10.0925769 191.972865,9.97492308 C192.558269,10.2102308 192.558269,11.3292692 192.141257,11.6822308 L191.614041,11.8025385 C190.849665,11.9794615 190.202547,12.1590385 190.202547,12.5695 C190.202547,12.9224615 190.498776,13.4514615 190.914906,14.0450385 C192.320229,15.9319231 193.49809,17.4631923 194.500506,18.8210769 C195.915527,16.9925769 197.021094,15.3374615 197.848065,14.1591538 C198.137241,13.6858846 198.733224,12.8012692 198.733224,12.5111154 C198.733224,12.2731538 198.436996,12.0962308 197.669094,11.9201923 L196.614661,11.6822308 C196.204702,11.3885385 196.204702,10.0925769 196.91089,9.97492308 C198.784359,10.0925769 200.43742,10.1509615 201.900931,10.1509615 C203.495804,10.1509615 204.901127,10.0925769 206.491592,9.97492308 C207.074351,10.2102308 207.074351,11.3292692 206.664392,11.6822308 L205.259069,11.9201923 C203.843167,12.1590385 202.906873,12.8012692 202.142498,13.5717692 C201.195624,14.5156538 198.784359,17.0518462 196.91089,19.5296538 C196.442743,20.1754231 196.146514,20.5903077 196.146514,20.8256154 C196.146514,21.0600385 196.314906,21.4749231 196.731918,22.0658462 C199.96222,26.6631923 202.021714,29.4966154 203.37502,31.2658462 C204.842057,33.2075769 206.144229,33.7401154 207.428767,33.9745385 L208.723886,34.2098462" id="Fill-8" fill="#FFFFFE"></path>
        </g>
    </g>
</svg>