<svg version="1.1" xmlns="http://www.w3.org/2000/svg" viewBox="0 0 828.59375 64" width="828.59375" height="64">
  <!-- svg-source:excalidraw -->
  
  <defs>
    <style class="style-fonts">
      @font-face {
        font-family: "Virgil";
        src: url("https://unpkg.com/@excalidraw/excalidraw@undefined/dist/excalidraw-assets/Virgil.woff2");
      }
      @font-face {
        font-family: "Cascadia";
        src: url("https://unpkg.com/@excalidraw/excalidraw@undefined/dist/excalidraw-assets/Cascadia.woff2");
      }
      @font-face {
        font-family: "Assistant";
        src: url("https://unpkg.com/@excalidraw/excalidraw@undefined/dist/excalidraw-assets/Assistant-Regular.woff2");
      }
    </style>
    
  </defs>
  <rect x="0" y="0" width="828.59375" height="64" fill="#ffffff"></rect><g stroke-linecap="round" transform="translate(10 10) rotate(0 47.75 22)"><path d="M0 0 C23.67 0.71, 43.85 -0.98, 95.5 0 M0 0 C22.65 0.53, 47.73 -0.33, 95.5 0 M95.5 0 C95.81 11.61, 97.17 27.48, 95.5 44 M95.5 0 C96.41 16.94, 94.6 35.27, 95.5 44 M95.5 44 C58.45 43.89, 21.23 43.48, 0 44 M95.5 44 C59.51 44.07, 24.3 45.41, 0 44 M0 44 C-0.4 36.48, 0.36 23.49, 0 0 M0 44 C-0.24 27.76, 0.63 13.37, 0 0" stroke="#1e1e1e" stroke-width="2" fill="none"></path></g><g stroke-linecap="round" transform="translate(155.5 10) rotate(0 101.7578125 22)"><path d="M0 0 C54.5 -2.35, 107.57 -1.75, 203.52 0 M0 0 C78.96 2.21, 156.61 1.57, 203.52 0 M203.52 0 C201.64 12.13, 204.04 22.13, 203.52 44 M203.52 0 C202.79 12.19, 203.87 26.95, 203.52 44 M203.52 44 C148.5 41.54, 92.65 44.44, 0 44 M203.52 44 C157.65 41.71, 113.55 41.72, 0 44 M0 44 C1.48 27.71, -2.09 10.9, 0 0 M0 44 C-0.49 30.98, 0.44 17.07, 0 0" stroke="#1e1e1e" stroke-width="2" fill="none"></path></g><g stroke-linecap="round" transform="translate(409.015625 10) rotate(0 101.7578125 22)"><path d="M0 0 C42.7 -1.51, 87.57 1.59, 203.52 0 M0 0 C63.23 -1.33, 125.12 -1.71, 203.52 0 M203.52 0 C205.63 13.68, 205.49 26.25, 203.52 44 M203.52 0 C203.03 9.72, 204.71 17.6, 203.52 44 M203.52 44 C154.16 44.57, 109.37 43.08, 0 44 M203.52 44 C126.85 43.5, 50.97 43.64, 0 44 M0 44 C0.75 24.97, 0.97 9.52, 0 0 M0 44 C0.76 35.02, 0.55 25.69, 0 0" stroke="#1e1e1e" stroke-width="2" fill="none"></path></g><g stroke-linecap="round" transform="translate(662.53125 10) rotate(0 78.03125 22)"><path d="M0 0 C51.79 0.28, 108.82 1.51, 156.06 0 M0 0 C33.58 -1.15, 66.98 -1.23, 156.06 0 M156.06 0 C156.18 16.38, 155.6 27.15, 156.06 44 M156.06 0 C156.71 18.03, 155.66 33.82, 156.06 44 M156.06 44 C116.03 43.9, 74.23 43.99, 0 44 M156.06 44 C122.92 41.79, 89.21 43.59, 0 44 M0 44 C-2.1 31.79, -0.19 15.74, 0 0 M0 44 C0.42 32.08, 0.07 18.46, 0 0" stroke="#1e1e1e" stroke-width="2" fill="none"></path></g><g stroke-linecap="round"><g transform="translate(105.5 32) rotate(0 22.349999999999994 0)"><path d="M0.01 -0.3 C7.38 -0.21, 37.38 -0.06, 44.67 0.04 M0.77 0.74 C8.1 0.96, 37.14 0.98, 44.48 0.76" stroke="#1e1e1e" stroke-width="2" fill="none"></path></g><g transform="translate(105.5 32) rotate(0 22.349999999999994 0)"><path d="M24.04 8.48 C29.58 7.13, 36.25 3.16, 44.48 0.76 M24.04 8.48 C31.4 5.38, 38.73 3.1, 44.48 0.76" stroke="#1e1e1e" stroke-width="2" fill="none"></path></g><g transform="translate(105.5 32) rotate(0 22.349999999999994 0)"><path d="M23.86 -6.47 C29.39 -3.38, 36.12 -2.93, 44.48 0.76 M23.86 -6.47 C31.35 -4.19, 38.73 -1.08, 44.48 0.76" stroke="#1e1e1e" stroke-width="2" fill="none"></path></g></g><mask></mask><g stroke-linecap="round"><g transform="translate(359.016 32) rotate(0 22.349999999999994 0)"><path d="M0.2 0.47 C7.57 0.47, 36.85 -0.45, 44.24 -0.46 M1.05 0.23 C8.39 0.33, 36.61 0.12, 43.83 0.01" stroke="#1e1e1e" stroke-width="2" fill="none"></path></g><g transform="translate(359.016 32) rotate(0 22.349999999999994 0)"><path d="M23.38 7.7 C28.61 6.19, 31.27 5.09, 43.83 0.01 M23.38 7.7 C30.77 4.78, 39 1.41, 43.83 0.01" stroke="#1e1e1e" stroke-width="2" fill="none"></path></g><g transform="translate(359.016 32) rotate(0 22.349999999999994 0)"><path d="M23.22 -7.25 C28.42 -5.58, 31.11 -3.51, 43.83 0.01 M23.22 -7.25 C30.65 -4.52, 38.94 -2.24, 43.83 0.01" stroke="#1e1e1e" stroke-width="2" fill="none"></path></g></g><mask></mask><g stroke-linecap="round"><g transform="translate(612.531 32) rotate(0 22.350000000000023 0)"><path d="M0.97 0.04 C8.26 0.14, 36.47 0.36, 43.74 0.33 M0.55 -0.42 C8.04 -0.44, 37.42 -0.6, 44.74 -0.46" stroke="#1e1e1e" stroke-width="2" fill="none"></path></g><g transform="translate(612.531 32) rotate(0 22.350000000000023 0)"><path d="M24.17 6.91 C28.62 4.43, 33.5 4.48, 44.74 -0.46 M24.17 6.91 C29.8 5.12, 34.97 3.44, 44.74 -0.46" stroke="#1e1e1e" stroke-width="2" fill="none"></path></g><g transform="translate(612.531 32) rotate(0 22.350000000000023 0)"><path d="M24.24 -8.03 C28.64 -7.35, 33.5 -4.14, 44.74 -0.46 M24.24 -8.03 C29.86 -5.74, 35.01 -3.32, 44.74 -0.46" stroke="#1e1e1e" stroke-width="2" fill="none"></path></g></g><mask></mask><g transform="translate(24.390037536621094 19.5) rotate(0 33.359962463378906 12.5)"><text x="33.359962463378906" y="0" font-family="Virgil, Segoe UI Emoji" font-size="20px" fill="#1e1e1e" text-anchor="middle" style="white-space: pre;" direction="ltr" dominant-baseline="text-before-edge">Prompt</text></g><g transform="translate(175.98787689208984 19.5) rotate(0 81.26993560791016 12.5)"><text x="81.26993560791016" y="0" font-family="Virgil, Segoe UI Emoji" font-size="20px" fill="#1e1e1e" text-anchor="middle" style="white-space: pre;" direction="ltr" dominant-baseline="text-before-edge">Reasoning Step 1</text></g><g transform="translate(425.093505859375 19.5) rotate(0 85.679931640625 12.5)"><text x="85.679931640625" y="0" font-family="Virgil, Segoe UI Emoji" font-size="20px" fill="#1e1e1e" text-anchor="middle" style="white-space: pre;" direction="ltr" dominant-baseline="text-before-edge">Reasoning Step 2</text></g><g transform="translate(681.1425399780273 19.5) rotate(0 59.419960021972656 12.5)"><text x="59.419960021972656" y="0" font-family="Virgil, Segoe UI Emoji" font-size="20px" fill="#1e1e1e" text-anchor="middle" style="white-space: pre;" direction="ltr" dominant-baseline="text-before-edge">Final Answer</text></g></svg>