<svg version="1.1" xmlns="http://www.w3.org/2000/svg" viewBox="0 0 466.234375 64" width="466.234375" height="64">
  <!-- svg-source:excalidraw -->
  
  <defs>
    <style class="style-fonts">
      @font-face {
        font-family: "Virgil";
        src: url("https://unpkg.com/@excalidraw/excalidraw@undefined/dist/excalidraw-assets/Virgil.woff2");
      }
      @font-face {
        font-family: "Cascadia";
        src: url("https://unpkg.com/@excalidraw/excalidraw@undefined/dist/excalidraw-assets/Cascadia.woff2");
      }
      @font-face {
        font-family: "Assistant";
        src: url("https://unpkg.com/@excalidraw/excalidraw@undefined/dist/excalidraw-assets/Assistant-Regular.woff2");
      }
    </style>
    
  </defs>
  <rect x="0" y="0" width="466.234375" height="64" fill="#ffffff"></rect><g stroke-linecap="round" transform="translate(10 10) rotate(0 51.5078125 22)"><path d="M0 0 C40.61 0.72, 80.46 -1.75, 103.02 0 M0 0 C38.92 0.43, 79.76 0.41, 103.02 0 M103.02 0 C101.28 11.77, 100.86 25.16, 103.02 44 M103.02 0 C102.48 16.68, 101.74 32.79, 103.02 44 M103.02 44 C69.95 45.85, 35.32 45.75, 0 44 M103.02 44 C77.85 44.39, 54.71 42.74, 0 44 M0 44 C-1.49 29.35, -0.61 12.16, 0 0 M0 44 C-0.14 28.59, 0.22 13.34, 0 0" stroke="#1e1e1e" stroke-width="2" fill="none"></path></g><g stroke-linecap="round" transform="translate(163.015625 10) rotate(0 75.1484375 22)"><path d="M0 0 C32.55 -0.57, 61.7 1.59, 150.3 0 M0 0 C35.93 1.53, 72.04 1.16, 150.3 0 M150.3 0 C149.37 8.07, 149.7 21.47, 150.3 44 M150.3 0 C150.42 8.52, 149.67 19.17, 150.3 44 M150.3 44 C103.28 45.8, 55.31 43.63, 0 44 M150.3 44 C97.11 42.82, 41.44 43.29, 0 44 M0 44 C1.64 29.89, 0.57 17.94, 0 0 M0 44 C0.06 27.58, 0.22 8.98, 0 0" stroke="#1e1e1e" stroke-width="2" fill="none"></path></g><g stroke-linecap="round" transform="translate(363.3125 10) rotate(0 46.4609375 22)"><path d="M0 0 C29.5 -1.96, 61.62 -1.63, 92.92 0 M0 0 C22.55 -0.03, 44.4 -0.56, 92.92 0 M92.92 0 C90.78 15.98, 94.28 32.19, 92.92 44 M92.92 0 C91.95 15.4, 93.18 32.85, 92.92 44 M92.92 44 C57.11 45.18, 18.25 45.59, 0 44 M92.92 44 C69.11 43.93, 45.57 44.84, 0 44 M0 44 C-0.26 32.85, 1.32 22.62, 0 0 M0 44 C0.49 31.61, -1.09 18.35, 0 0" stroke="#1e1e1e" stroke-width="2" fill="none"></path></g><g stroke-linecap="round"><g transform="translate(113.016 32) rotate(0 22.35 0)"><path d="M0.38 -0.42 C7.73 -0.51, 37.42 -0.32, 44.67 -0.33 M1.31 0.56 C8.63 0.5, 37.2 0.31, 44.48 0.2" stroke="#1e1e1e" stroke-width="2" fill="none"></path></g><g transform="translate(113.016 32) rotate(0 22.35 0)"><path d="M24.02 7.88 C29.55 6.4, 36 2.57, 44.48 0.2 M24.02 7.88 C28.44 6.14, 32.69 4.88, 44.48 0.2" stroke="#1e1e1e" stroke-width="2" fill="none"></path></g><g transform="translate(113.016 32) rotate(0 22.35 0)"><path d="M23.87 -7.06 C29.48 -3.95, 35.98 -3.18, 44.48 0.2 M23.87 -7.06 C28.3 -5.51, 32.59 -3.46, 44.48 0.2" stroke="#1e1e1e" stroke-width="2" fill="none"></path></g></g><mask></mask><g stroke-linecap="round"><g transform="translate(313.313 32) rotate(0 22.349999999999994 0)"><path d="M0.08 0.47 C7.27 0.44, 36.59 -0.24, 43.87 -0.34 M0.87 0.24 C8.21 0.28, 37.61 0.16, 44.94 0.19" stroke="#1e1e1e" stroke-width="2" fill="none"></path></g><g transform="translate(313.313 32) rotate(0 22.349999999999994 0)"><path d="M24.41 7.67 C32.4 4.55, 38.07 1.76, 44.94 0.19 M24.41 7.67 C30.12 5.23, 36.31 3.16, 44.94 0.19" stroke="#1e1e1e" stroke-width="2" fill="none"></path></g><g transform="translate(313.313 32) rotate(0 22.349999999999994 0)"><path d="M24.4 -7.28 C32.38 -5.2, 38.05 -2.8, 44.94 0.19 M24.4 -7.28 C30.15 -5.54, 36.33 -3.43, 44.94 0.19" stroke="#1e1e1e" stroke-width="2" fill="none"></path></g></g><mask></mask><g transform="translate(22.467849731445312 19.5) rotate(0 39.03996276855469 12.5)"><text x="39.03996276855469" y="0" font-family="Virgil, Segoe UI Emoji" font-size="20px" fill="#1e1e1e" text-anchor="middle" style="white-space: pre;" direction="ltr" dominant-baseline="text-before-edge">Context</text></g><g transform="translate(174.79412078857422 19.5) rotate(0 63.36994171142578 12.5)"><text x="63.36994171142578" y="0" font-family="Virgil, Segoe UI Emoji" font-size="20px" fill="#1e1e1e" text-anchor="middle" style="white-space: pre;" direction="ltr" dominant-baseline="text-before-edge">Task Prompt</text></g><g transform="translate(374.92347717285156 19.5) rotate(0 34.84996032714844 12.5)"><text x="34.84996032714844" y="0" font-family="Virgil, Segoe UI Emoji" font-size="20px" fill="#1e1e1e" text-anchor="middle" style="white-space: pre;" direction="ltr" dominant-baseline="text-before-edge">Output</text></g></svg>