<svg version="1.1" xmlns="http://www.w3.org/2000/svg" viewBox="0 0 585.046875 64" width="585.046875" height="64">
  <!-- svg-source:excalidraw -->
  
  <defs>
    <style class="style-fonts">
      @font-face {
        font-family: "Virgil";
        src: url("https://unpkg.com/@excalidraw/excalidraw@undefined/dist/excalidraw-assets/Virgil.woff2");
      }
      @font-face {
        font-family: "Cascadia";
        src: url("https://unpkg.com/@excalidraw/excalidraw@undefined/dist/excalidraw-assets/Cascadia.woff2");
      }
      @font-face {
        font-family: "Assistant";
        src: url("https://unpkg.com/@excalidraw/excalidraw@undefined/dist/excalidraw-assets/Assistant-Regular.woff2");
      }
    </style>
    
  </defs>
  <rect x="0" y="0" width="585.046875" height="64" fill="none"></rect><g stroke-linecap="round" transform="translate(10 10) rotate(0 110.9140625 22)"><path d="M0 0 C82.14 -0.11, 163.05 -0.63, 221.83 0 M0 0 C44.53 -1.42, 90.1 -2.17, 221.83 0 M221.83 0 C222.29 11.67, 222.55 20.46, 221.83 44 M221.83 0 C221.82 17.67, 221.3 35.61, 221.83 44 M221.83 44 C133.59 41.61, 45.46 42.85, 0 44 M221.83 44 C170.14 42.22, 118.92 42.67, 0 44 M0 44 C-1.54 32.94, 0.39 22.68, 0 0 M0 44 C-0.1 32.6, -0.55 20.52, 0 0" stroke="#1e1e1e" stroke-width="2" fill="none"></path></g><g stroke-linecap="round" transform="translate(281.828125 10) rotate(0 75.1484375 22)"><path d="M0 0 C47.19 0.24, 94.8 -2.96, 150.3 0 M0 0 C33.28 1.04, 65.27 0.04, 150.3 0 M150.3 0 C150.98 11.01, 148.67 21.85, 150.3 44 M150.3 0 C150.39 14.25, 150.9 30.91, 150.3 44 M150.3 44 C92.43 45.55, 37.42 43.02, 0 44 M150.3 44 C114.89 42.96, 80.49 42.58, 0 44 M0 44 C-1.46 27.3, -1.77 8.4, 0 0 M0 44 C0.14 32.85, 0.03 23.58, 0 0" stroke="#1e1e1e" stroke-width="2" fill="none"></path></g><g stroke-linecap="round" transform="translate(482.125 10) rotate(0 46.4609375 22)"><path d="M0 0 C25.41 -1.15, 46.39 -1.15, 92.92 0 M0 0 C37 -0.85, 72.47 -1.12, 92.92 0 M92.92 0 C94.14 12.61, 95.02 29.5, 92.92 44 M92.92 0 C92.14 12.53, 93.84 24.33, 92.92 44 M92.92 44 C71.93 43.39, 47.25 41.99, 0 44 M92.92 44 C71.25 43.57, 49.55 44.52, 0 44 M0 44 C1.07 25.88, -0.31 9.28, 0 0 M0 44 C-0.67 26.88, 0.36 8.09, 0 0" stroke="#1e1e1e" stroke-width="2" fill="none"></path></g><g stroke-linecap="round"><g transform="translate(231.828 32) rotate(0 22.35000000000001 0)"><path d="M0.84 -0.45 C7.97 -0.47, 36.35 -0.49, 43.66 -0.45 M0.35 0.52 C7.61 0.57, 37.24 0.06, 44.62 0.02" stroke="#1e1e1e" stroke-width="2" fill="none"></path></g><g transform="translate(231.828 32) rotate(0 22.35000000000001 0)"><path d="M24.17 7.73 C30.87 3.86, 38.36 2.94, 44.62 0.02 M24.17 7.73 C29.36 5.39, 34.65 3.71, 44.62 0.02" stroke="#1e1e1e" stroke-width="2" fill="none"></path></g><g transform="translate(231.828 32) rotate(0 22.35000000000001 0)"><path d="M24 -7.22 C30.73 -5.61, 38.28 -1.05, 44.62 0.02 M24 -7.22 C29.26 -5.59, 34.6 -3.29, 44.62 0.02" stroke="#1e1e1e" stroke-width="2" fill="none"></path></g></g><mask></mask><g stroke-linecap="round"><g transform="translate(432.125 32) rotate(0 22.349999999999994 0)"><path d="M0.05 -0.54 C7.31 -0.51, 36.43 0.38, 43.75 0.51 M0.83 0.37 C8.27 0.23, 37.63 -0.01, 44.76 -0.2" stroke="#1e1e1e" stroke-width="2" fill="none"></path></g><g transform="translate(432.125 32) rotate(0 22.349999999999994 0)"><path d="M24.34 7.6 C28.43 4.93, 35.42 3.45, 44.76 -0.2 M24.34 7.6 C31.05 4.62, 38.39 2.52, 44.76 -0.2" stroke="#1e1e1e" stroke-width="2" fill="none"></path></g><g transform="translate(432.125 32) rotate(0 22.349999999999994 0)"><path d="M24.11 -7.34 C28.3 -6.29, 35.35 -4.04, 44.76 -0.2 M24.11 -7.34 C30.94 -5.22, 38.35 -2.22, 44.76 -0.2" stroke="#1e1e1e" stroke-width="2" fill="none"></path></g></g><mask></mask><g transform="translate(28.01415252685547 19.5) rotate(0 92.89990997314453 12.5)"><text x="92.89990997314453" y="0" font-family="Virgil, Segoe UI Emoji" font-size="20px" fill="#1e1e1e" text-anchor="middle" style="white-space: pre;" direction="ltr" dominant-baseline="text-before-edge">System Instruction</text></g><g transform="translate(293.6066207885742 19.5) rotate(0 63.36994171142578 12.5)"><text x="63.36994171142578" y="0" font-family="Virgil, Segoe UI Emoji" font-size="20px" fill="#1e1e1e" text-anchor="middle" style="white-space: pre;" direction="ltr" dominant-baseline="text-before-edge">Task Prompt</text></g><g transform="translate(493.73597717285156 19.5) rotate(0 34.84996032714844 12.5)"><text x="34.84996032714844" y="0" font-family="Virgil, Segoe UI Emoji" font-size="20px" fill="#1e1e1e" text-anchor="middle" style="white-space: pre;" direction="ltr" dominant-baseline="text-before-edge">Output</text></g></svg>