<svg version="1.1" xmlns="http://www.w3.org/2000/svg" viewBox="0 0 416.875 534" width="416.875" height="534">
  <!-- svg-source:excalidraw -->
  
  <defs>
    <style class="style-fonts">
      @font-face {
        font-family: "Virgil";
        src: url("https://unpkg.com/@excalidraw/excalidraw@undefined/dist/excalidraw-assets/Virgil.woff2");
      }
      @font-face {
        font-family: "Cascadia";
        src: url("https://unpkg.com/@excalidraw/excalidraw@undefined/dist/excalidraw-assets/Cascadia.woff2");
      }
      @font-face {
        font-family: "Assistant";
        src: url("https://unpkg.com/@excalidraw/excalidraw@undefined/dist/excalidraw-assets/Assistant-Regular.woff2");
      }
    </style>
    
  </defs>
  <rect x="0" y="0" width="416.875" height="534" fill="#ffffff"></rect><g stroke-linecap="round" transform="translate(127.859375 10) rotate(0 80.578125 22)"><path d="M0 0 C45.67 1.9, 93.52 2.23, 161.16 0 M0 0 C48.51 -0.43, 96.24 -1.22, 161.16 0 M161.16 0 C159.77 12.74, 161.61 25.57, 161.16 44 M161.16 0 C160.34 10.08, 160.15 17.94, 161.16 44 M161.16 44 C111.07 45.22, 58.86 44.29, 0 44 M161.16 44 C111.68 43.41, 61.99 43.12, 0 44 M0 44 C-0.69 31.64, -0.25 18.18, 0 0 M0 44 C0.43 33.58, -0.6 25.09, 0 0" stroke="#1e1e1e" stroke-width="2" fill="none"></path></g><g stroke-linecap="round" transform="translate(10 104) rotate(0 198.4375 22)"><path d="M0 0 C133.52 1.24, 266.47 0.38, 396.88 0 M0 0 C107.56 -1.02, 214.43 -1.33, 396.88 0 M396.88 0 C397.51 10.06, 398.42 16.59, 396.88 44 M396.88 0 C397.5 10.57, 396.18 23.03, 396.88 44 M396.88 44 C241.39 47, 84.72 46.19, 0 44 M396.88 44 C297.67 44.42, 198.22 44.38, 0 44 M0 44 C1.22 27.66, 1.07 9.5, 0 0 M0 44 C-1.24 33.15, -0.21 23.59, 0 0" stroke="#1e1e1e" stroke-width="2" fill="none"></path></g><g stroke-linecap="round" transform="translate(56.3984375 198) rotate(0 152.0390625 22)"><path d="M0 0 C81.74 -0.27, 161.31 -1.91, 304.08 0 M0 0 C107.67 -1.2, 214.77 -1.6, 304.08 0 M304.08 0 C304.71 13.01, 302.04 21.72, 304.08 44 M304.08 0 C302.97 10.16, 304.02 22.13, 304.08 44 M304.08 44 C212.39 45.4, 118.52 44.53, 0 44 M304.08 44 C226.51 44.18, 148.82 44.83, 0 44 M0 44 C0.15 34.26, -1.59 21.42, 0 0 M0 44 C-0.97 27.6, -0.62 11.32, 0 0" stroke="#1e1e1e" stroke-width="2" fill="none"></path></g><g stroke-linecap="round" transform="translate(103.65625 292) rotate(0 104.78125 22)"><path d="M0 0 C60.63 -1.4, 117.78 -0.42, 209.56 0 M0 0 C73.3 -0.72, 146.42 -0.85, 209.56 0 M209.56 0 C211.48 9.22, 208.93 20.89, 209.56 44 M209.56 0 C209.51 10.64, 210.89 20.89, 209.56 44 M209.56 44 C127.5 45.61, 44.2 44.68, 0 44 M209.56 44 C143.21 44.21, 77.79 43.65, 0 44 M0 44 C0.6 29.93, -1.7 20.72, 0 0 M0 44 C0.52 29.79, 0.77 16.33, 0 0" stroke="#1e1e1e" stroke-width="2" fill="none"></path></g><g stroke-linecap="round" transform="translate(96.3046875 386) rotate(0 112.1328125 22)"><path d="M0 0 C82.26 -2.12, 165.52 -0.73, 224.27 0 M0 0 C76.62 -0.1, 153.36 0.26, 224.27 0 M224.27 0 C222.63 14.2, 223.27 28.77, 224.27 44 M224.27 0 C224.12 18.04, 223.95 35.13, 224.27 44 M224.27 44 C144.41 43.34, 63.52 44.47, 0 44 M224.27 44 C153.98 44.32, 83.14 43.54, 0 44 M0 44 C-1.69 27.21, 1.5 13.6, 0 0 M0 44 C-0.16 35.14, 0.02 25.45, 0 0" stroke="#1e1e1e" stroke-width="2" fill="none"></path></g><g stroke-linecap="round" transform="translate(126.0703125 480) rotate(0 82.3671875 22)"><path d="M0 0 C60.96 1.11, 124.13 0.89, 164.73 0 M0 0 C52.6 0.04, 106.53 0.89, 164.73 0 M164.73 0 C164.3 13.89, 163.85 31.91, 164.73 44 M164.73 0 C165.47 9.61, 165.47 19.68, 164.73 44 M164.73 44 C101.28 43.24, 40.13 44.4, 0 44 M164.73 44 C114.42 43.44, 62.47 44.52, 0 44 M0 44 C-1.67 32.15, 0.02 15.48, 0 0 M0 44 C0.32 34.49, -0.15 25.08, 0 0" stroke="#1e1e1e" stroke-width="2" fill="none"></path></g><g stroke-linecap="round"><g transform="translate(208.438 54) rotate(0 0 22.35)"><path d="M-0.16 0.79 C-0.19 8.12, 0.23 37.23, 0.28 44.44 M0.75 0.47 C0.64 7.63, 0.14 36.25, 0 43.59" stroke="#1e1e1e" stroke-width="2" fill="none"></path></g><g transform="translate(208.438 54) rotate(0 0 22.35)"><path d="M-7.1 22.92 C-3.84 31.37, -1.23 39.04, 0 43.59 M-7.1 22.92 C-5.47 28.18, -3.17 34.11, 0 43.59" stroke="#1e1e1e" stroke-width="2" fill="none"></path></g><g transform="translate(208.438 54) rotate(0 0 22.35)"><path d="M7.85 23.2 C5.37 31.52, 2.25 39.08, 0 43.59 M7.85 23.2 C5.52 28.32, 3.87 34.17, 0 43.59" stroke="#1e1e1e" stroke-width="2" fill="none"></path></g></g><mask></mask><g stroke-linecap="round"><g transform="translate(208.438 148) rotate(0 0 22.349999999999994)"><path d="M0.29 0.78 C0.34 8.12, 0.32 37.13, 0.24 44.34 M-0.22 0.45 C-0.23 7.63, 0 36.09, -0.08 43.44" stroke="#1e1e1e" stroke-width="2" fill="none"></path></g><g transform="translate(208.438 148) rotate(0 0 22.349999999999994)"><path d="M-7.55 22.91 C-4.84 29.43, -2.88 34.77, -0.08 43.44 M-7.55 22.91 C-5.87 28.69, -3.38 34.48, -0.08 43.44" stroke="#1e1e1e" stroke-width="2" fill="none"></path></g><g transform="translate(208.438 148) rotate(0 0 22.349999999999994)"><path d="M7.39 22.91 C5.65 29.47, 3.16 34.8, -0.08 43.44 M7.39 22.91 C5.03 28.66, 3.47 34.45, -0.08 43.44" stroke="#1e1e1e" stroke-width="2" fill="none"></path></g></g><mask></mask><g stroke-linecap="round"><g transform="translate(208.438 242) rotate(0 0 22.349999999999994)"><path d="M0.28 0.74 C0.33 7.94, 0.21 36.84, 0.14 44.01 M-0.24 0.38 C-0.23 7.63, -0.17 37.33, -0.22 44.61" stroke="#1e1e1e" stroke-width="2" fill="none"></path></g><g transform="translate(208.438 242) rotate(0 0 22.349999999999994)"><path d="M-7.65 24.06 C-5.16 29.84, -3.93 34.86, -0.22 44.61 M-7.65 24.06 C-5.94 28.59, -4.16 32.22, -0.22 44.61" stroke="#1e1e1e" stroke-width="2" fill="none"></path></g><g transform="translate(208.438 242) rotate(0 0 22.349999999999994)"><path d="M7.29 24.09 C5.74 29.9, 2.93 34.91, -0.22 44.61 M7.29 24.09 C5.88 28.58, 4.54 32.2, -0.22 44.61" stroke="#1e1e1e" stroke-width="2" fill="none"></path></g></g><mask></mask><g stroke-linecap="round"><g transform="translate(208.438 336) rotate(0 0 22.349999999999994)"><path d="M0.24 0.64 C0.15 7.85, -0.07 36.82, -0.19 44.04 M-0.31 0.23 C-0.5 7.5, -0.87 37.29, -0.73 44.66" stroke="#1e1e1e" stroke-width="2" fill="none"></path></g><g transform="translate(208.438 336) rotate(0 0 22.349999999999994)"><path d="M-8.22 24.13 C-5.27 31.02, -3.16 37.72, -0.73 44.66 M-8.22 24.13 C-6.14 29.81, -4.89 34.42, -0.73 44.66" stroke="#1e1e1e" stroke-width="2" fill="none"></path></g><g transform="translate(208.438 336) rotate(0 0 22.349999999999994)"><path d="M6.73 24.12 C4.39 31.04, 1.22 37.75, -0.73 44.66 M6.73 24.12 C4.98 29.83, 2.41 34.45, -0.73 44.66" stroke="#1e1e1e" stroke-width="2" fill="none"></path></g></g><mask></mask><g stroke-linecap="round"><g transform="translate(208.438 430) rotate(0 0 22.349999999999994)"><path d="M0.14 0.31 C0.06 7.47, -0.1 36.43, -0.16 43.7 M-0.46 -0.27 C-0.64 6.92, -0.63 36.7, -0.67 44.14" stroke="#1e1e1e" stroke-width="2" fill="none"></path></g><g transform="translate(208.438 430) rotate(0 0 22.349999999999994)"><path d="M-8.09 23.59 C-5.8 30.51, -3.74 37.58, -0.67 44.14 M-8.09 23.59 C-5.75 28.28, -4.53 33.59, -0.67 44.14" stroke="#1e1e1e" stroke-width="2" fill="none"></path></g><g transform="translate(208.438 430) rotate(0 0 22.349999999999994)"><path d="M6.85 23.63 C3.9 30.55, 0.7 37.61, -0.67 44.14 M6.85 23.63 C5.44 28.34, 2.91 33.64, -0.67 44.14" stroke="#1e1e1e" stroke-width="2" fill="none"></path></g></g><mask></mask><g transform="translate(143.69756317138672 19.5) rotate(0 64.73993682861328 12.5)"><text x="64.73993682861328" y="0" font-family="Virgil, Segoe UI Emoji" font-size="20px" fill="#1e1e1e" text-anchor="middle" style="white-space: pre;" direction="ltr" dominant-baseline="text-before-edge">Input Prompt</text></g><g transform="translate(38.46766662597656 113.5) rotate(0 169.96983337402344 12.5)"><text x="169.96983337402344" y="0" font-family="Virgil, Segoe UI Emoji" font-size="20px" fill="#1e1e1e" text-anchor="middle" style="white-space: pre;" direction="ltr" dominant-baseline="text-before-edge">Model Predicts Token Probabilities</text></g><g transform="translate(77.4476318359375 207.5) rotate(0 130.9898681640625 12.5)"><text x="130.9898681640625" y="0" font-family="Virgil, Segoe UI Emoji" font-size="20px" fill="#1e1e1e" text-anchor="middle" style="white-space: pre;" direction="ltr" dominant-baseline="text-before-edge">Sort Tokens by Probability</text></g><g transform="translate(116.08757781982422 301.5) rotate(0 92.34992218017578 12.5)"><text x="92.34992218017578" y="0" font-family="Virgil, Segoe UI Emoji" font-size="20px" fill="#1e1e1e" text-anchor="middle" style="white-space: pre;" direction="ltr" dominant-baseline="text-before-edge">Pick Top K Tokens</text></g><g transform="translate(115.65757751464844 395.5) rotate(0 92.77992248535156 12.5)"><text x="92.77992248535156" y="0" font-family="Virgil, Segoe UI Emoji" font-size="20px" fill="#1e1e1e" text-anchor="middle" style="white-space: pre;" direction="ltr" dominant-baseline="text-before-edge">Sample from Top K</text></g><g transform="translate(139.99756622314453 489.5) rotate(0 68.43993377685547 12.5)"><text x="68.43993377685547" y="0" font-family="Virgil, Segoe UI Emoji" font-size="20px" fill="#1e1e1e" text-anchor="middle" style="white-space: pre;" direction="ltr" dominant-baseline="text-before-edge">Output Token</text></g></svg>