<svg version="1.1" xmlns="http://www.w3.org/2000/svg" viewBox="0 0 558.625 64" width="558.625" height="64">
  <!-- svg-source:excalidraw -->
  
  <defs>
    <style class="style-fonts">
      @font-face {
        font-family: "Virgil";
        src: url("https://unpkg.com/@excalidraw/excalidraw@undefined/dist/excalidraw-assets/Virgil.woff2");
      }
      @font-face {
        font-family: "Cascadia";
        src: url("https://unpkg.com/@excalidraw/excalidraw@undefined/dist/excalidraw-assets/Cascadia.woff2");
      }
      @font-face {
        font-family: "Assistant";
        src: url("https://unpkg.com/@excalidraw/excalidraw@undefined/dist/excalidraw-assets/Assistant-Regular.woff2");
      }
    </style>
    
  </defs>
  <rect x="0" y="0" width="558.625" height="64" fill="#ffffff"></rect><g stroke-linecap="round" transform="translate(10 10) rotate(0 97.703125 22)"><path d="M0 0 C47.94 1.31, 94.21 1.7, 195.41 0 M0 0 C73.21 -1.03, 144.96 -1.34, 195.41 0 M195.41 0 C195.37 14.55, 195.33 23.82, 195.41 44 M195.41 0 C196.05 11.41, 194.88 22.44, 195.41 44 M195.41 44 C119.94 41.69, 43.52 41.99, 0 44 M195.41 44 C156.66 42.09, 115.31 43.14, 0 44 M0 44 C1.18 30.83, 1.22 18.9, 0 0 M0 44 C-0.94 32.86, -0.75 19.8, 0 0" stroke="#1e1e1e" stroke-width="2" fill="none"></path></g><g stroke-linecap="round" transform="translate(255.40625 10) rotate(0 75.1484375 22)"><path d="M0 0 C36.43 -0.47, 72.56 0.74, 150.3 0 M0 0 C34.26 -1.32, 67.94 -0.53, 150.3 0 M150.3 0 C152.27 14.17, 148.78 27.69, 150.3 44 M150.3 0 C150.92 10.02, 151.03 21.34, 150.3 44 M150.3 44 C107.47 42.07, 65.95 41.79, 0 44 M150.3 44 C118.65 44.55, 88.83 45.12, 0 44 M0 44 C-0.58 34.41, -0.29 22.2, 0 0 M0 44 C0.74 30.43, -0.72 17.47, 0 0" stroke="#1e1e1e" stroke-width="2" fill="none"></path></g><g stroke-linecap="round" transform="translate(455.703125 10) rotate(0 46.4609375 22)"><path d="M0 0 C25.2 0.76, 51.38 -1.8, 92.92 0 M0 0 C33.12 -0.29, 67.92 0.02, 92.92 0 M92.92 0 C92.7 13.26, 91.85 28.57, 92.92 44 M92.92 0 C93.1 15.18, 94.18 28.94, 92.92 44 M92.92 44 C69.61 42.83, 47.68 41.64, 0 44 M92.92 44 C69.64 43.56, 47.74 42.68, 0 44 M0 44 C0.75 33.85, -0.93 24.84, 0 0 M0 44 C-0.36 32.51, -0.55 23.58, 0 0" stroke="#1e1e1e" stroke-width="2" fill="none"></path></g><g stroke-linecap="round"><g transform="translate(205.406 32) rotate(0 22.349999999999994 0)"><path d="M0.57 0.3 C7.87 0.2, 37.27 -0.38, 44.6 -0.41 M-0.06 -0.02 C7.19 -0.08, 36.97 0.22, 44.38 0.08" stroke="#1e1e1e" stroke-width="2" fill="none"></path></g><g transform="translate(205.406 32) rotate(0 22.349999999999994 0)"><path d="M23.86 7.6 C31.53 5.71, 37.38 3.02, 44.38 0.08 M23.86 7.6 C30.57 5.17, 37.46 2.95, 44.38 0.08" stroke="#1e1e1e" stroke-width="2" fill="none"></path></g><g transform="translate(205.406 32) rotate(0 22.349999999999994 0)"><path d="M23.83 -7.34 C31.53 -4.04, 37.4 -1.53, 44.38 0.08 M23.83 -7.34 C30.57 -4.86, 37.47 -2.17, 44.38 0.08" stroke="#1e1e1e" stroke-width="2" fill="none"></path></g></g><mask></mask><g stroke-linecap="round"><g transform="translate(405.703 32) rotate(0 22.350000000000023 0)"><path d="M0.8 0.4 C7.98 0.45, 36.53 0.41, 43.79 0.36 M0.29 0.13 C7.63 0.02, 37.52 -0.53, 44.82 -0.42" stroke="#1e1e1e" stroke-width="2" fill="none"></path></g><g transform="translate(405.703 32) rotate(0 22.350000000000023 0)"><path d="M24.32 7.14 C31.91 3.82, 38.7 2.31, 44.82 -0.42 M24.32 7.14 C30.99 4.81, 37.93 2.18, 44.82 -0.42" stroke="#1e1e1e" stroke-width="2" fill="none"></path></g><g transform="translate(405.703 32) rotate(0 22.350000000000023 0)"><path d="M24.26 -7.8 C31.88 -6.12, 38.69 -2.63, 44.82 -0.42 M24.26 -7.8 C30.88 -5.26, 37.84 -3.02, 44.82 -0.42" stroke="#1e1e1e" stroke-width="2" fill="none"></path></g></g><mask></mask><g transform="translate(30.873191833496094 19.5) rotate(0 76.8299331665039 12.5)"><text x="76.8299331665039" y="0" font-family="Virgil, Segoe UI Emoji" font-size="20px" fill="#1e1e1e" text-anchor="middle" style="white-space: pre;" direction="ltr" dominant-baseline="text-before-edge">Role Assignment</text></g><g transform="translate(267.1847457885742 19.5) rotate(0 63.36994171142578 12.5)"><text x="63.36994171142578" y="0" font-family="Virgil, Segoe UI Emoji" font-size="20px" fill="#1e1e1e" text-anchor="middle" style="white-space: pre;" direction="ltr" dominant-baseline="text-before-edge">Task Prompt</text></g><g transform="translate(467.31410217285156 19.5) rotate(0 34.84996032714844 12.5)"><text x="34.84996032714844" y="0" font-family="Virgil, Segoe UI Emoji" font-size="20px" fill="#1e1e1e" text-anchor="middle" style="white-space: pre;" direction="ltr" dominant-baseline="text-before-edge">Output</text></g></svg>