<svg version="1.1" xmlns="http://www.w3.org/2000/svg" viewBox="0 0 824.8125 252" width="824.8125" height="252">
  <!-- svg-source:excalidraw -->
  
  <defs>
    <style class="style-fonts">
      @font-face {
        font-family: "Virgil";
        src: url("https://unpkg.com/@excalidraw/excalidraw@undefined/dist/excalidraw-assets/Virgil.woff2");
      }
      @font-face {
        font-family: "Cascadia";
        src: url("https://unpkg.com/@excalidraw/excalidraw@undefined/dist/excalidraw-assets/Cascadia.woff2");
      }
      @font-face {
        font-family: "Assistant";
        src: url("https://unpkg.com/@excalidraw/excalidraw@undefined/dist/excalidraw-assets/Assistant-Regular.woff2");
      }
    </style>
    
  </defs>
  <rect x="0" y="0" width="824.8125" height="252" fill="#ffffff"></rect><g stroke-linecap="round" transform="translate(10 104) rotate(0 47.75 22)"><path d="M0 0 C25.24 -0.07, 51.99 -0.77, 95.5 0 M0 0 C30.83 0.33, 60.57 0.9, 95.5 0 M95.5 0 C95.31 17.91, 95.04 30.63, 95.5 44 M95.5 0 C95.73 14.62, 96.47 27.06, 95.5 44 M95.5 44 C74.4 44.41, 53.41 43.21, 0 44 M95.5 44 C60.84 44.27, 26.82 44.78, 0 44 M0 44 C-1.8 28.82, -1.59 16.79, 0 0 M0 44 C-0.91 31.27, -0.9 17.91, 0 0" stroke="#1e1e1e" stroke-width="2" fill="none"></path></g><g stroke-linecap="round" transform="translate(155.5 10) rotate(0 68.8515625 22)"><path d="M0 0 C33.75 -0.34, 67.35 1.32, 137.7 0 M0 0 C37.6 -0.79, 75.75 0.02, 137.7 0 M137.7 0 C139.45 16.45, 135.85 34.98, 137.7 44 M137.7 0 C137.98 16.39, 136.47 30.56, 137.7 44 M137.7 44 C105.31 44.59, 70.34 45.3, 0 44 M137.7 44 C92.74 43.31, 48.32 43.64, 0 44 M0 44 C-0.84 28.97, 1.17 17.18, 0 0 M0 44 C0.58 30.42, 0.68 19.63, 0 0" stroke="#1e1e1e" stroke-width="2" fill="none"></path></g><g stroke-linecap="round" transform="translate(155.5 104) rotate(0 68.8515625 22)"><path d="M0 0 C33.11 -0.87, 69.2 -0.16, 137.7 0 M0 0 C36.79 0.56, 74.49 0.91, 137.7 0 M137.7 0 C136.7 12.59, 137.91 30.28, 137.7 44 M137.7 0 C138.42 8.3, 136.92 17.7, 137.7 44 M137.7 44 C110.58 45.1, 83.69 45.47, 0 44 M137.7 44 C91.99 44.45, 46.75 44.02, 0 44 M0 44 C-1.17 34.74, 0.51 23.49, 0 0 M0 44 C-0.54 30.15, 1.29 14.71, 0 0" stroke="#1e1e1e" stroke-width="2" fill="none"></path></g><g stroke-linecap="round" transform="translate(155.5 198) rotate(0 68.8515625 22)"><path d="M0 0 C30.36 1.26, 62.67 0.26, 137.7 0 M0 0 C48.78 0.84, 97.32 0.45, 137.7 0 M137.7 0 C136.07 12.23, 139.18 21.92, 137.7 44 M137.7 0 C137.17 12.36, 137.45 25.26, 137.7 44 M137.7 44 C95.36 45.5, 53.22 44.94, 0 44 M137.7 44 C102.33 43.99, 66.05 43.1, 0 44 M0 44 C1.12 34.82, -0.01 26.08, 0 0 M0 44 C0.51 35.92, -0.25 25.54, 0 0" stroke="#1e1e1e" stroke-width="2" fill="none"></path></g><g stroke-linecap="round" transform="translate(343.203125 104) rotate(0 133.3671875 22)"><path d="M0 0 C73 0.88, 144.93 2.1, 266.73 0 M0 0 C81.12 -0.5, 161.37 -1.48, 266.73 0 M266.73 0 C266.88 17.85, 264.69 33.43, 266.73 44 M266.73 0 C266.28 15.64, 266.06 32.47, 266.73 44 M266.73 44 C169.43 44.59, 70.75 43.55, 0 44 M266.73 44 C187.66 45.07, 107.74 44.33, 0 44 M0 44 C0.46 33.06, 1.02 20.71, 0 0 M0 44 C1.29 27.65, -0.15 11.81, 0 0" stroke="#1e1e1e" stroke-width="2" fill="none"></path></g><g stroke-linecap="round" transform="translate(659.9375 104) rotate(0 77.4375 22)"><path d="M0 0 C35.75 -0.92, 73.59 -0.23, 154.88 0 M0 0 C45.87 -0.78, 89.56 -0.29, 154.88 0 M154.88 0 C155.56 9.43, 154.4 23.92, 154.88 44 M154.88 0 C153.96 15.39, 154.6 33.45, 154.88 44 M154.88 44 C105.3 45.53, 53.89 44.85, 0 44 M154.88 44 C110.77 43.6, 65.66 43.72, 0 44 M0 44 C-0.45 34.91, -2.12 25.93, 0 0 M0 44 C-0.3 34.46, 0.29 25.72, 0 0" stroke="#1e1e1e" stroke-width="2" fill="none"></path></g><g stroke-linecap="round"><g transform="translate(74.777 104) rotate(0 37.711499999999994 -36)"><path d="M0.17 -0.39 C9.6 -12.42, 43.88 -60.16, 56.32 -71.98 C68.76 -83.79, 71.56 -71.48, 74.8 -71.29 M2.21 -1.63 C11.59 -13.48, 43.73 -58.49, 55.69 -70.43 C67.65 -82.36, 70.51 -72.86, 73.98 -73.26" stroke="#1e1e1e" stroke-width="2" fill="none"></path></g><g transform="translate(74.777 104) rotate(0 37.711499999999994 -36)"><path d="M64.41 -74.02 C66.37 -73.33, 68.98 -73.73, 73.98 -73.26 M64.41 -74.02 C68 -73.98, 71.67 -73.77, 73.98 -73.26" stroke="#1e1e1e" stroke-width="2" fill="none"></path></g><g transform="translate(74.777 104) rotate(0 37.711499999999994 -36)"><path d="M67.13 -79.99 C68.46 -77.89, 70.41 -76.87, 73.98 -73.26 M67.13 -79.99 C69.79 -77.78, 72.48 -75.43, 73.98 -73.26" stroke="#1e1e1e" stroke-width="2" fill="none"></path></g></g><mask></mask><g stroke-linecap="round"><g transform="translate(105.5 126) rotate(0 22.349999999999994 0)"><path d="M0.32 0.27 C7.59 0.29, 36.84 -0.07, 44.21 -0.05 M1.23 -0.06 C8.42 0.06, 36.6 0.69, 43.79 0.62" stroke="#1e1e1e" stroke-width="2" fill="none"></path></g><g transform="translate(105.5 126) rotate(0 22.349999999999994 0)"><path d="M23.19 7.92 C30.24 5.65, 36.18 3.9, 43.79 0.62 M23.19 7.92 C30.64 5.58, 38.21 1.97, 43.79 0.62" stroke="#1e1e1e" stroke-width="2" fill="none"></path></g><g transform="translate(105.5 126) rotate(0 22.349999999999994 0)"><path d="M23.32 -7.03 C30.31 -4.55, 36.21 -1.55, 43.79 0.62 M23.32 -7.03 C30.79 -3.83, 38.31 -1.89, 43.79 0.62" stroke="#1e1e1e" stroke-width="2" fill="none"></path></g></g><mask></mask><g stroke-linecap="round"><g transform="translate(74.777 148) rotate(0 37.711499999999994 36)"><path d="M1.1 0.02 C10.34 12.21, 43.16 60.52, 55.6 72.71 C68.05 84.89, 72.49 73.3, 75.77 73.12 M-0.04 -1.01 C9.05 10.86, 42.01 58.89, 54.59 70.96 C67.18 83.02, 71.93 71.1, 75.45 71.37" stroke="#1e1e1e" stroke-width="2" fill="none"></path></g><g transform="translate(74.777 148) rotate(0 37.711499999999994 36)"><path d="M69.2 78.66 C70.95 76.54, 73.2 75.33, 75.45 71.37 M69.2 78.66 C72.02 75.6, 73.62 73.02, 75.45 71.37" stroke="#1e1e1e" stroke-width="2" fill="none"></path></g><g transform="translate(74.777 148) rotate(0 37.711499999999994 36)"><path d="M65.98 72.94 C68.59 72.37, 71.72 72.71, 75.45 71.37 M65.98 72.94 C70.09 72.14, 72.95 71.81, 75.45 71.37" stroke="#1e1e1e" stroke-width="2" fill="none"></path></g></g><mask></mask><g stroke-linecap="round"><g transform="translate(293.203 32) rotate(0 70.8725 34.3975)"><path d="M0.52 0.38 C4.79 0.34, 2.07 -10.62, 25.71 0.85 C49.35 12.31, 123.17 57.69, 142.37 69.17 M-0.92 -0.73 C3.28 -1.15, 1.28 -12.12, 25.13 -0.83 C48.98 10.46, 122.89 55.6, 142.19 67.03" stroke="#1e1e1e" stroke-width="2" fill="none"></path></g><g transform="translate(293.203 32) rotate(0 70.8725 34.3975)"><path d="M117.65 62.28 C124.05 64.73, 132.24 66.69, 142.19 67.03 M117.65 62.28 C125.33 62.66, 134.07 65.79, 142.19 67.03" stroke="#1e1e1e" stroke-width="2" fill="none"></path></g><g transform="translate(293.203 32) rotate(0 70.8725 34.3975)"><path d="M126.44 47.61 C130.56 53.99, 136.39 59.88, 142.19 67.03 M126.44 47.61 C131.16 52.92, 136.99 60.91, 142.19 67.03" stroke="#1e1e1e" stroke-width="2" fill="none"></path></g></g><mask></mask><g stroke-linecap="round"><g transform="translate(293.203 126) rotate(0 22.350000000000023 0)"><path d="M0.45 0.32 C7.75 0.41, 37.27 0.6, 44.59 0.51 M-0.25 0.02 C6.99 -0.04, 36.96 -0.24, 44.36 -0.19" stroke="#1e1e1e" stroke-width="2" fill="none"></path></g><g transform="translate(293.203 126) rotate(0 22.350000000000023 0)"><path d="M23.83 7.3 C31.6 5.4, 39.13 2.38, 44.36 -0.19 M23.83 7.3 C28.85 5.41, 35.17 2.84, 44.36 -0.19" stroke="#1e1e1e" stroke-width="2" fill="none"></path></g><g transform="translate(293.203 126) rotate(0 22.350000000000023 0)"><path d="M23.82 -7.65 C31.6 -4.32, 39.13 -2.1, 44.36 -0.19 M23.82 -7.65 C28.9 -5.5, 35.23 -4.03, 44.36 -0.19" stroke="#1e1e1e" stroke-width="2" fill="none"></path></g></g><mask></mask><g stroke-linecap="round"><g transform="translate(293.203 220) rotate(0 70.8725 -34.397499999999994)"><path d="M1.21 0.35 C5.47 0.51, 2.84 11.74, 26.12 0.38 C49.4 -10.99, 121.79 -56.1, 140.89 -67.83 M0.12 -0.25 C4.33 -0.45, 2.46 10.02, 25.76 -1.55 C49.07 -13.12, 120.78 -58.34, 139.93 -69.67" stroke="#1e1e1e" stroke-width="2" fill="none"></path></g><g transform="translate(293.203 220) rotate(0 70.8725 -34.397499999999994)"><path d="M124.34 -50.13 C130.48 -54.25, 134.4 -62.62, 139.93 -69.67 M124.34 -50.13 C130.52 -56.84, 135.36 -64.85, 139.93 -69.67" stroke="#1e1e1e" stroke-width="2" fill="none"></path></g><g transform="translate(293.203 220) rotate(0 70.8725 -34.397499999999994)"><path d="M115.43 -64.73 C124.25 -64.49, 130.86 -68.45, 139.93 -69.67 M115.43 -64.73 C124.94 -65.8, 133.16 -68.26, 139.93 -69.67" stroke="#1e1e1e" stroke-width="2" fill="none"></path></g></g><mask></mask><g stroke-linecap="round"><g transform="translate(609.938 126) rotate(0 22.350000000000023 0)"><path d="M0.89 0.51 C8.21 0.43, 37.08 -0.04, 44.37 -0.16 M0.42 0.3 C7.69 0.27, 36.68 0.46, 44.03 0.45" stroke="#1e1e1e" stroke-width="2" fill="none"></path></g><g transform="translate(609.938 126) rotate(0 22.350000000000023 0)"><path d="M23.48 7.86 C30.35 5.95, 35.08 4.29, 44.03 0.45 M23.48 7.86 C29.06 5.48, 34.04 4.39, 44.03 0.45" stroke="#1e1e1e" stroke-width="2" fill="none"></path></g><g transform="translate(609.938 126) rotate(0 22.350000000000023 0)"><path d="M23.52 -7.08 C30.43 -4.66, 35.14 -1.98, 44.03 0.45 M23.52 -7.08 C29.02 -5.63, 33.99 -2.9, 44.03 0.45" stroke="#1e1e1e" stroke-width="2" fill="none"></path></g></g><mask></mask><g transform="translate(24.390037536621094 113.5) rotate(0 33.359962463378906 12.5)"><text x="33.359962463378906" y="0" font-family="Virgil, Segoe UI Emoji" font-size="20px" fill="#1e1e1e" text-anchor="middle" style="white-space: pre;" direction="ltr" dominant-baseline="text-before-edge">Prompt</text></g><g transform="translate(172.9216079711914 19.5) rotate(0 51.429954528808594 12.5)"><text x="51.429954528808594" y="0" font-family="Virgil, Segoe UI Emoji" font-size="20px" fill="#1e1e1e" text-anchor="middle" style="white-space: pre;" direction="ltr" dominant-baseline="text-before-edge">Response 1</text></g><g transform="translate(168.51161193847656 113.5) rotate(0 55.83995056152344 12.5)"><text x="55.83995056152344" y="0" font-family="Virgil, Segoe UI Emoji" font-size="20px" fill="#1e1e1e" text-anchor="middle" style="white-space: pre;" direction="ltr" dominant-baseline="text-before-edge">Response 2</text></g><g transform="translate(168.8216094970703 207.5) rotate(0 55.52995300292969 12.5)"><text x="55.52995300292969" y="0" font-family="Virgil, Segoe UI Emoji" font-size="20px" fill="#1e1e1e" text-anchor="middle" style="white-space: pre;" direction="ltr" dominant-baseline="text-before-edge">Response 3</text></g><g transform="translate(360.8304214477539 113.5) rotate(0 115.7398910522461 12.5)"><text x="115.7398910522461" y="0" font-family="Virgil, Segoe UI Emoji" font-size="20px" fill="#1e1e1e" text-anchor="middle" style="white-space: pre;" direction="ltr" dominant-baseline="text-before-edge">Select Most Consistent</text></g><g transform="translate(675.6250534057617 113.5) rotate(0 61.74994659423828 12.5)"><text x="61.74994659423828" y="0" font-family="Virgil, Segoe UI Emoji" font-size="20px" fill="#1e1e1e" text-anchor="middle" style="white-space: pre;" direction="ltr" dominant-baseline="text-before-edge">Final Output</text></g></svg>