<svg version="1.1" xmlns="http://www.w3.org/2000/svg" viewBox="0 0 1045.0625 64" width="1045.0625" height="64">
  <!-- svg-source:excalidraw -->
  
  <defs>
    <style class="style-fonts">
      @font-face {
        font-family: "Virgil";
        src: url("https://unpkg.com/@excalidraw/excalidraw@undefined/dist/excalidraw-assets/Virgil.woff2");
      }
      @font-face {
        font-family: "Cascadia";
        src: url("https://unpkg.com/@excalidraw/excalidraw@undefined/dist/excalidraw-assets/Cascadia.woff2");
      }
      @font-face {
        font-family: "Assistant";
        src: url("https://unpkg.com/@excalidraw/excalidraw@undefined/dist/excalidraw-assets/Assistant-Regular.woff2");
      }
    </style>
    
  </defs>
  <rect x="0" y="0" width="1045.0625" height="64" fill="#ffffff"></rect><g stroke-linecap="round" transform="translate(10 10) rotate(0 104.515625 22)"><path d="M0 0 C77.07 2.04, 151.7 1.9, 209.03 0 M0 0 C57.65 1.2, 113.85 2.31, 209.03 0 M209.03 0 C208.61 10.21, 209.33 20.72, 209.03 44 M209.03 0 C208.59 15.98, 210.13 32.86, 209.03 44 M209.03 44 C159.02 43.56, 111.64 41.41, 0 44 M209.03 44 C165.95 44.5, 122.56 42.93, 0 44 M0 44 C0.45 30.79, -0.52 18.1, 0 0 M0 44 C1.22 31.34, -0.3 20.24, 0 0" stroke="#1e1e1e" stroke-width="2" fill="none"></path></g><g stroke-linecap="round" transform="translate(269.03125 10) rotate(0 163.9453125 22)"><path d="M0 0 C95.32 -1.47, 190.02 -2.32, 327.89 0 M0 0 C78.23 -2, 157.61 -2.57, 327.89 0 M327.89 0 C327.23 12.19, 326.7 24.88, 327.89 44 M327.89 0 C327.8 16.08, 328.44 29.69, 327.89 44 M327.89 44 C250.94 42.21, 171.57 41.01, 0 44 M327.89 44 C201.94 45.63, 74.11 44.97, 0 44 M0 44 C-1.64 26.6, -2.36 8.81, 0 0 M0 44 C-0.79 32.63, -0.03 21.65, 0 0" stroke="#1e1e1e" stroke-width="2" fill="none"></path></g><g stroke-linecap="round" transform="translate(646.921875 10) rotate(0 122.609375 22)"><path d="M0 0 C55.98 -0.27, 110.38 -1.76, 245.22 0 M0 0 C52.86 1.55, 104.76 0.59, 245.22 0 M245.22 0 C245.6 13.57, 246.54 30.78, 245.22 44 M245.22 0 C245.84 15.34, 244.27 29.32, 245.22 44 M245.22 44 C190.09 43.98, 133.6 46.52, 0 44 M245.22 44 C177.06 45.32, 107.56 46.74, 0 44 M0 44 C-0.3 24.82, -0.8 8.47, 0 0 M0 44 C-0.97 30.86, -1.12 16.91, 0 0" stroke="#1e1e1e" stroke-width="2" fill="none"></path></g><g stroke-linecap="round" transform="translate(942.140625 10) rotate(0 46.4609375 22)"><path d="M0 0 C36.46 -0.88, 70.49 -2.02, 92.92 0 M0 0 C37.91 -0.8, 73.83 0.09, 92.92 0 M92.92 0 C91.37 13.97, 93.64 25.99, 92.92 44 M92.92 0 C93.17 9.72, 92.17 20.03, 92.92 44 M92.92 44 C70.82 42.12, 53.15 43.56, 0 44 M92.92 44 C59.47 44.35, 28.54 45.55, 0 44 M0 44 C-1.68 28.29, -0.8 13.76, 0 0 M0 44 C0.31 25.79, -0.54 9.37, 0 0" stroke="#1e1e1e" stroke-width="2" fill="none"></path></g><g stroke-linecap="round"><g transform="translate(219.031 32) rotate(0 22.349999999999994 0)"><path d="M0.67 -0.16 C7.86 -0.27, 36.52 -0.46, 43.87 -0.47 M0.09 -0.71 C7.44 -0.78, 37.5 -0.17, 44.93 -0.01" stroke="#1e1e1e" stroke-width="2" fill="none"></path></g><g transform="translate(219.031 32) rotate(0 22.349999999999994 0)"><path d="M24.25 7.04 C30.94 4.02, 37.36 3.23, 44.93 -0.01 M24.25 7.04 C29.31 4.98, 35.08 3.26, 44.93 -0.01" stroke="#1e1e1e" stroke-width="2" fill="none"></path></g><g transform="translate(219.031 32) rotate(0 22.349999999999994 0)"><path d="M24.55 -7.9 C31.17 -5.87, 37.48 -1.61, 44.93 -0.01 M24.55 -7.9 C29.56 -6.12, 35.25 -4, 44.93 -0.01" stroke="#1e1e1e" stroke-width="2" fill="none"></path></g></g><mask></mask><g stroke-linecap="round"><g transform="translate(596.922 32) rotate(0 22.349999999999966 0)"><path d="M0.34 -0.33 C7.52 -0.27, 36.46 0.46, 43.73 0.54 M1.26 0.69 C8.59 0.6, 37.68 0.1, 44.72 -0.14" stroke="#1e1e1e" stroke-width="2" fill="none"></path></g><g transform="translate(596.922 32) rotate(0 22.349999999999966 0)"><path d="M24.38 7.83 C30.54 4.34, 38.93 2.11, 44.72 -0.14 M24.38 7.83 C30.96 5.42, 37.83 2.36, 44.72 -0.14" stroke="#1e1e1e" stroke-width="2" fill="none"></path></g><g transform="translate(596.922 32) rotate(0 22.349999999999966 0)"><path d="M24.01 -7.11 C30.33 -5.61, 38.83 -2.86, 44.72 -0.14 M24.01 -7.11 C30.78 -4.54, 37.77 -2.63, 44.72 -0.14" stroke="#1e1e1e" stroke-width="2" fill="none"></path></g></g><mask></mask><g stroke-linecap="round"><g transform="translate(892.141 32) rotate(0 22.350000000000023 0)"><path d="M0.17 -0.47 C7.51 -0.48, 37.38 -0.39, 44.74 -0.24 M1 0.48 C8.3 0.55, 37.4 0.49, 44.59 0.34" stroke="#1e1e1e" stroke-width="2" fill="none"></path></g><g transform="translate(892.141 32) rotate(0 22.350000000000023 0)"><path d="M24.13 8.01 C30.04 6.53, 37.23 3.34, 44.59 0.34 M24.13 8.01 C32.18 5.04, 39.6 2.29, 44.59 0.34" stroke="#1e1e1e" stroke-width="2" fill="none"></path></g><g transform="translate(892.141 32) rotate(0 22.350000000000023 0)"><path d="M23.99 -6.94 C29.93 -3.48, 37.16 -1.73, 44.59 0.34 M23.99 -6.94 C32.06 -4.19, 39.53 -1.22, 44.59 0.34" stroke="#1e1e1e" stroke-width="2" fill="none"></path></g></g><mask></mask><g transform="translate(30.735694885253906 19.5) rotate(0 83.7799301147461 12.5)"><text x="83.7799301147461" y="0" font-family="Virgil, Segoe UI Emoji" font-size="20px" fill="#1e1e1e" text-anchor="middle" style="white-space: pre;" direction="ltr" dominant-baseline="text-before-edge">General Question</text></g><g transform="translate(295.4866638183594 19.5) rotate(0 137.48989868164062 12.5)"><text x="137.48989868164062" y="0" font-family="Virgil, Segoe UI Emoji" font-size="20px" fill="#1e1e1e" text-anchor="middle" style="white-space: pre;" direction="ltr" dominant-baseline="text-before-edge">Answer to General Question</text></g><g transform="translate(665.4013519287109 19.5) rotate(0 104.12989807128906 12.5)"><text x="104.12989807128906" y="0" font-family="Virgil, Segoe UI Emoji" font-size="20px" fill="#1e1e1e" text-anchor="middle" style="white-space: pre;" direction="ltr" dominant-baseline="text-before-edge">Specific Task Prompt</text></g><g transform="translate(953.7516021728516 19.5) rotate(0 34.84996032714844 12.5)"><text x="34.84996032714844" y="0" font-family="Virgil, Segoe UI Emoji" font-size="20px" fill="#1e1e1e" text-anchor="middle" style="white-space: pre;" direction="ltr" dominant-baseline="text-before-edge">Output</text></g></svg>