<svg version="1.1" xmlns="http://www.w3.org/2000/svg" viewBox="0 0 694.0928391723633 762.78125" width="694.0928391723633" height="762.78125">
  <!-- svg-source:excalidraw -->
  
  <defs>
    <style class="style-fonts">
      @font-face {
        font-family: "Virgil";
        src: url("https://unpkg.com/@excalidraw/excalidraw@undefined/dist/excalidraw-assets/Virgil.woff2");
      }
      @font-face {
        font-family: "Cascadia";
        src: url("https://unpkg.com/@excalidraw/excalidraw@undefined/dist/excalidraw-assets/Cascadia.woff2");
      }
      @font-face {
        font-family: "Assistant";
        src: url("https://unpkg.com/@excalidraw/excalidraw@undefined/dist/excalidraw-assets/Assistant-Regular.woff2");
      }
    </style>
    
  </defs>
  <rect x="0" y="0" width="694.0928391723633" height="762.78125" fill="#ffffff"></rect><g stroke-linecap="round" transform="translate(266.45329901123046 10) rotate(0 80.578125 22)"><path d="M0 0 C38.75 -2.24, 81.67 -2.81, 161.16 0 M0 0 C34.86 0.67, 68.14 -0.11, 161.16 0 M161.16 0 C161.62 10.82, 159.18 17.25, 161.16 44 M161.16 0 C160.59 16.8, 161.03 32.35, 161.16 44 M161.16 44 C120.79 43.9, 76.69 43.03, 0 44 M161.16 44 C116.97 44.72, 72.37 43.97, 0 44 M0 44 C-0.47 31.86, -0.77 23.12, 0 0 M0 44 C0.31 29.36, 0.83 13.19, 0 0" stroke="#1e1e1e" stroke-width="2" fill="none"></path></g><g stroke-linecap="round" transform="translate(148.59392401123046 104) rotate(0 198.4375 22)"><path d="M0 0 C148.38 2.37, 297.15 0.58, 396.88 0 M0 0 C119.79 -1.31, 239.08 -1.3, 396.88 0 M396.88 0 C398.21 7.77, 395.18 20.05, 396.88 44 M396.88 0 C397.22 15.91, 396.65 32.3, 396.88 44 M396.88 44 C274.42 44.9, 151.55 45.2, 0 44 M396.88 44 C317.04 43.18, 236.72 43.31, 0 44 M0 44 C-1.51 27.97, 0.63 13.85, 0 0 M0 44 C0.21 35.58, -0.93 25.77, 0 0" stroke="#1e1e1e" stroke-width="2" fill="none"></path></g><g stroke-linecap="round" transform="translate(178.14079901123046 198) rotate(0 168.890625 168.890625)"><path d="M169 0 C230 60.24, 288.19 122.68, 337.78 169 M169 0 C213.34 43.91, 257.9 88.36, 337.78 169 M337.78 169 C287.52 218.11, 240.42 270.23, 169 337.78 M337.78 169 C298.39 207.82, 260.64 245.58, 169 337.78 M169 337.78 C115.98 285.7, 65.23 233.78, 0 169 M169 337.78 C111.43 280.28, 54.44 224.14, 0 169 M0 169 C59.98 110.36, 121.4 47.69, 169 0 M0 169 C58.25 110.09, 115.14 53.15, 169 0" stroke="#1e1e1e" stroke-width="2" fill="none"></path></g><g stroke-linecap="round" transform="translate(264.66423651123046 708.78125) rotate(0 82.3671875 22)"><path d="M0 0 C61.03 0.69, 122.72 1.59, 164.73 0 M0 0 C34.29 1.34, 70.75 2.08, 164.73 0 M164.73 0 C165.8 8.18, 162.6 20.77, 164.73 44 M164.73 0 C164.86 11.28, 165.45 22.44, 164.73 44 M164.73 44 C122.12 44.32, 83.12 43.75, 0 44 M164.73 44 C128.25 43.7, 90.6 42.5, 0 44 M0 44 C-2.19 32.83, -0.46 20.77, 0 0 M0 44 C0.54 29.17, 1.19 13.23, 0 0" stroke="#1e1e1e" stroke-width="2" fill="none"></path></g><g stroke-linecap="round"><g transform="translate(347.03192401123044 54) rotate(0 0 22.35)"><path d="M0.01 0.3 C0.13 7.67, 0.28 37, 0.2 44.25 M-0.65 -0.28 C-0.54 7.23, -0.34 37.56, -0.13 44.97" stroke="#1e1e1e" stroke-width="2" fill="none"></path></g><g transform="translate(347.03192401123044 54) rotate(0 0 22.35)"><path d="M-7.93 24.56 C-6.76 29.16, -4.69 32.18, -0.13 44.97 M-7.93 24.56 C-6.25 29.52, -4.07 33.63, -0.13 44.97" stroke="#1e1e1e" stroke-width="2" fill="none"></path></g><g transform="translate(347.03192401123044 54) rotate(0 0 22.35)"><path d="M7.02 24.32 C5.08 28.98, 4.04 32.04, -0.13 44.97 M7.02 24.32 C5.25 29.27, 3.97 33.43, -0.13 44.97" stroke="#1e1e1e" stroke-width="2" fill="none"></path></g></g><mask></mask><g stroke-linecap="round"><g transform="translate(347.03192401123044 148) rotate(0 0.1980000000000075 22.600499999999997)"><path d="M0.3 0.7 C0.31 4.7, 0.18 17.27, 0.05 24.52 C-0.08 31.78, -0.38 40.88, -0.48 44.23 M1.2 0.32 C1.18 4.38, -0.26 17.6, -0.36 24.98 C-0.45 32.36, 0.7 41.23, 0.64 44.59" stroke="#1e1e1e" stroke-width="2" fill="none"></path></g><g transform="translate(347.03192401123044 148) rotate(0 0.1980000000000075 22.600499999999997)"><path d="M-3.17 35.51 C-2.18 37.5, -1.96 39.06, 0.64 44.59 M-3.17 35.51 C-2.29 37.63, -1.77 39.21, 0.64 44.59" stroke="#1e1e1e" stroke-width="2" fill="none"></path></g><g transform="translate(347.03192401123044 148) rotate(0 0.1980000000000075 22.600499999999997)"><path d="M3.56 35.19 C3.11 37.24, 1.88 38.87, 0.64 44.59 M3.56 35.19 C3 37.37, 2.07 39.02, 0.64 44.59" stroke="#1e1e1e" stroke-width="2" fill="none"></path></g></g><mask></mask><g mask="url(#mask-2h6cEgPzqePx-4f-tSHUN)" stroke-linecap="round"><g transform="translate(255.06992401123046 444.32) rotate(0 -80.07 82.3305)"><path d="M0.43 0.11 C-26.43 21.87, -134.25 102.88, -161.18 130.13 C-188.11 157.38, -161.32 157.77, -161.16 163.61 M-0.8 -0.89 C-27.31 21.05, -132.68 103.69, -159.01 131.23 C-185.35 158.78, -158.64 159.11, -158.8 164.38" stroke="#1e1e1e" stroke-width="2" fill="none"></path></g><g transform="translate(255.06992401123046 444.32) rotate(0 -80.07 82.3305)"><path d="M-174.55 158.38 C-169.67 158.68, -166.23 160.51, -158.8 164.38 M-174.55 158.38 C-170.63 158.92, -168.55 161.43, -158.8 164.38" stroke="#1e1e1e" stroke-width="2" fill="none"></path></g><g transform="translate(255.06992401123046 444.32) rotate(0 -80.07 82.3305)"><path d="M-167.01 149.67 C-164.44 152.62, -163.27 157.08, -158.8 164.38 M-167.01 149.67 C-164.7 152.09, -164.23 156.45, -158.8 164.38" stroke="#1e1e1e" stroke-width="2" fill="none"></path></g></g><mask id="mask-2h6cEgPzqePx-4f-tSHUN"><rect x="0" y="0" fill="#fff" width="515.2099240112304" height="708.981"></rect><rect x="10" y="562.781" fill="#000" width="169.85984802246094" height="25" opacity="1"></rect></mask><g mask="url(#mask-Sqt6Kao-4zTi5Eo0j4MK6)" stroke-linecap="round"><g transform="translate(439.99292401123046 443.82) rotate(0 79.57 82.8305)"><path d="M0.11 -0.54 C26.56 21.05, 131.98 102.84, 158.31 130.44 C184.64 158.04, 157.87 159.16, 158.09 165.08 M-1.3 1.53 C25.58 23.19, 133.63 103.97, 160.59 131.44 C187.54 158.91, 160.51 160.96, 160.44 166.36" stroke="#1e1e1e" stroke-width="2" fill="none"></path></g><g transform="translate(439.99292401123046 443.82) rotate(0 79.57 82.8305)"><path d="M168.21 151.41 C164.75 154.2, 162.73 157.84, 160.44 166.36 M168.21 151.41 C165.32 155.15, 164.27 160.84, 160.44 166.36" stroke="#1e1e1e" stroke-width="2" fill="none"></path></g><g transform="translate(439.99292401123046 443.82) rotate(0 79.57 82.8305)"><path d="M176 159.9 C170.46 160.46, 166.38 161.85, 160.44 166.36 M176 159.9 C170.79 161.2, 167.45 164.4, 160.44 166.36" stroke="#1e1e1e" stroke-width="2" fill="none"></path></g></g><mask id="mask-Sqt6Kao-4zTi5Eo0j4MK6"><rect x="0" y="0" fill="#fff" width="699.1329240112304" height="709.481"></rect><rect x="514.1730088500975" y="562.781" fill="#000" width="169.91983032226562" height="25" opacity="1"></rect></mask><g stroke-linecap="round"><g transform="translate(94.92992401123047 658.781) rotate(0 82.012 27.8365)"><path d="M-0.54 -0.33 C-0.86 3.56, -28.44 14.62, -1.02 23.95 C26.39 33.29, 136.3 50.64, 163.95 55.68 M1.12 1.85 C1.12 5.85, -25.85 16.31, 1.16 24.94 C28.16 33.57, 135.75 48.63, 163.14 53.61" stroke="#1e1e1e" stroke-width="2" fill="none"></path></g><g transform="translate(94.92992401123047 658.781) rotate(0 82.012 27.8365)"><path d="M138.59 58.31 C145.45 55.24, 153.34 55.23, 163.14 53.61 M138.59 58.31 C146.13 57.56, 156.09 54.52, 163.14 53.61" stroke="#1e1e1e" stroke-width="2" fill="none"></path></g><g transform="translate(94.92992401123047 658.781) rotate(0 82.012 27.8365)"><path d="M141.31 41.43 C147.27 44.01, 154.24 49.67, 163.14 53.61 M141.31 41.43 C148.03 46.44, 157.06 49.18, 163.14 53.61" stroke="#1e1e1e" stroke-width="2" fill="none"></path></g></g><mask></mask><g stroke-linecap="round"><g transform="translate(599.1329240112304 658.781) rotate(0 -82.012 27.8365)"><path d="M-1.33 -0.52 C-1.44 3.72, 25.98 15.5, -1.05 24.92 C-28.08 34.34, -136.19 51.11, -163.51 55.99 M0.44 1.56 C0.68 6.09, 28.52 17.67, 1.12 26.42 C-26.29 35.17, -136.29 49.35, -164.01 54.07" stroke="#1e1e1e" stroke-width="2" fill="none"></path></g><g transform="translate(599.1329240112304 658.781) rotate(0 -82.012 27.8365)"><path d="M-142.05 42.14 C-150.63 43.93, -155.85 50.21, -164.01 54.07 M-142.05 42.14 C-149.56 47.06, -159.07 49.86, -164.01 54.07" stroke="#1e1e1e" stroke-width="2" fill="none"></path></g><g transform="translate(599.1329240112304 658.781) rotate(0 -82.012 27.8365)"><path d="M-139.51 59.05 C-148.74 55.6, -154.73 56.66, -164.01 54.07 M-139.51 59.05 C-147.82 57.73, -158.27 54.3, -164.01 54.07" stroke="#1e1e1e" stroke-width="2" fill="none"></path></g></g><mask></mask><g transform="translate(282.2914871826172 19.5) rotate(0 64.73993682861328 12.5)"><text x="64.73993682861328" y="0" font-family="Virgil, Segoe UI Emoji" font-size="20px" fill="#1e1e1e" text-anchor="middle" style="white-space: pre;" direction="ltr" dominant-baseline="text-before-edge">Input Prompt</text></g><g transform="translate(177.06159063720702 113.5) rotate(0 169.96983337402344 12.5)"><text x="169.96983337402344" y="0" font-family="Virgil, Segoe UI Emoji" font-size="20px" fill="#1e1e1e" text-anchor="middle" style="white-space: pre;" direction="ltr" dominant-baseline="text-before-edge">Model Predicts Token Probabilities</text></g><g transform="translate(279.77617498779296 341.9453125) rotate(0 67.3099365234375 25)"><text x="67.3099365234375" y="0" font-family="Virgil, Segoe UI Emoji" font-size="20px" fill="#1e1e1e" text-anchor="middle" style="white-space: pre;" direction="ltr" dominant-baseline="text-before-edge">Temperature </text><text x="67.3099365234375" y="25" font-family="Virgil, Segoe UI Emoji" font-size="20px" fill="#1e1e1e" text-anchor="middle" style="white-space: pre;" direction="ltr" dominant-baseline="text-before-edge">Adjustment</text></g><g transform="translate(278.591490234375 718.28125) rotate(0 68.43993377685547 12.5)"><text x="68.43993377685547" y="0" font-family="Virgil, Segoe UI Emoji" font-size="20px" fill="#1e1e1e" text-anchor="middle" style="white-space: pre;" direction="ltr" dominant-baseline="text-before-edge">Output Token</text></g><g transform="translate(10 562.781) rotate(0 158.69619392341875 -36.712685621475714)"><text x="84.92992401123047" y="0" font-family="Virgil, Segoe UI Emoji" font-size="20px" fill="#1e1e1e" text-anchor="middle" style="white-space: pre;" direction="ltr" dominant-baseline="text-before-edge">Low Temperature</text></g><g transform="translate(514.1730088500976 562.781) rotate(0 11.443345648688421 -36.050645066133654)"><text x="84.95991516113281" y="0" font-family="Virgil, Segoe UI Emoji" font-size="20px" fill="#1e1e1e" text-anchor="middle" style="white-space: pre;" direction="ltr" dominant-baseline="text-before-edge">High Temperature</text></g></svg>