<svg version="1.1" xmlns="http://www.w3.org/2000/svg" viewBox="0 0 416.875 534" width="416.875" height="534">
  <!-- svg-source:excalidraw -->
  
  <defs>
    <style class="style-fonts">
      @font-face {
        font-family: "Virgil";
        src: url("https://unpkg.com/@excalidraw/excalidraw@undefined/dist/excalidraw-assets/Virgil.woff2");
      }
      @font-face {
        font-family: "Cascadia";
        src: url("https://unpkg.com/@excalidraw/excalidraw@undefined/dist/excalidraw-assets/Cascadia.woff2");
      }
      @font-face {
        font-family: "Assistant";
        src: url("https://unpkg.com/@excalidraw/excalidraw@undefined/dist/excalidraw-assets/Assistant-Regular.woff2");
      }
    </style>
    
  </defs>
  <rect x="0" y="0" width="416.875" height="534" fill="#ffffff"></rect><g stroke-linecap="round" transform="translate(127.859375 10) rotate(0 80.578125 22)"><path d="M0 0 C34.55 -0.33, 67.16 0.36, 161.16 0 M0 0 C53.08 -0.74, 105.75 -1.04, 161.16 0 M161.16 0 C162.31 7.93, 159.58 17.39, 161.16 44 M161.16 0 C159.95 16.26, 161.27 32.93, 161.16 44 M161.16 44 C126.9 42.18, 91.18 42.57, 0 44 M161.16 44 C99.72 46.03, 39.04 44.53, 0 44 M0 44 C-0.39 27.9, 0 14.4, 0 0 M0 44 C0.33 35.16, -1.01 24.6, 0 0" stroke="#1e1e1e" stroke-width="2" fill="none"></path></g><g stroke-linecap="round" transform="translate(10 104) rotate(0 198.4375 22)"><path d="M0 0 C94.39 -1.11, 189.44 -0.19, 396.88 0 M0 0 C146.21 -0.72, 292.4 -1.56, 396.88 0 M396.88 0 C396.03 15.08, 396.6 35.54, 396.88 44 M396.88 0 C396.94 9.77, 397.23 17.72, 396.88 44 M396.88 44 C302.84 45.95, 210.05 46.3, 0 44 M396.88 44 C250.67 43.66, 103.12 43.64, 0 44 M0 44 C-2.13 31.15, -1.31 16.85, 0 0 M0 44 C0.94 28.83, 0.21 15.46, 0 0" stroke="#1e1e1e" stroke-width="2" fill="none"></path></g><g stroke-linecap="round" transform="translate(56.3984375 198) rotate(0 152.0390625 22)"><path d="M0 0 C87.98 0.68, 177.9 1.51, 304.08 0 M0 0 C100.09 0.2, 198.78 1.26, 304.08 0 M304.08 0 C302.28 14.09, 305.69 27.21, 304.08 44 M304.08 0 C304.23 15.08, 302.92 29.13, 304.08 44 M304.08 44 C214.12 41.01, 123.9 43.04, 0 44 M304.08 44 C191.26 45.47, 78.2 45.86, 0 44 M0 44 C0.05 26.41, -1.44 11.25, 0 0 M0 44 C-1.1 30.64, -0.19 17.02, 0 0" stroke="#1e1e1e" stroke-width="2" fill="none"></path></g><g stroke-linecap="round" transform="translate(47.046875 292) rotate(0 161.390625 22)"><path d="M0 0 C104.09 1.58, 208.82 1.6, 322.78 0 M0 0 C110.66 -1.77, 222.75 -0.88, 322.78 0 M322.78 0 C322.16 16.34, 320.78 30.56, 322.78 44 M322.78 0 C322.92 8.82, 322.08 19.22, 322.78 44 M322.78 44 C205.27 46.21, 90.68 46.1, 0 44 M322.78 44 C232.75 44.85, 143.53 45.21, 0 44 M0 44 C-0.58 30.22, 0.88 19.7, 0 0 M0 44 C-0.18 28.87, -0.17 14.38, 0 0" stroke="#1e1e1e" stroke-width="2" fill="none"></path></g><g stroke-linecap="round" transform="translate(37.1953125 386) rotate(0 171.2421875 22)"><path d="M0 0 C95.18 0.65, 190.02 0.32, 342.48 0 M0 0 C92.37 1.92, 186.24 1.6, 342.48 0 M342.48 0 C343.49 9.27, 342.82 20.5, 342.48 44 M342.48 0 C341.91 12.07, 342.69 26.06, 342.48 44 M342.48 44 C271.42 43.33, 199.18 42.11, 0 44 M342.48 44 C210.12 42.52, 77.94 42.44, 0 44 M0 44 C-1.52 35.21, 0.2 26.33, 0 0 M0 44 C0.4 26.73, 1.04 8.37, 0 0" stroke="#1e1e1e" stroke-width="2" fill="none"></path></g><g stroke-linecap="round" transform="translate(126.0703125 480) rotate(0 82.3671875 22)"><path d="M0 0 C41.95 0.12, 82.02 -1.01, 164.73 0 M0 0 C58.26 1.91, 115.16 1.12, 164.73 0 M164.73 0 C162.85 9.64, 163.02 17.53, 164.73 44 M164.73 0 C164.16 15.43, 165.43 30, 164.73 44 M164.73 44 C108.62 46.75, 49.27 47.05, 0 44 M164.73 44 C110.28 45.19, 55.78 43.52, 0 44 M0 44 C0.7 31.08, 1.09 19.76, 0 0 M0 44 C0.15 35.41, -0.7 24.72, 0 0" stroke="#1e1e1e" stroke-width="2" fill="none"></path></g><g stroke-linecap="round"><g transform="translate(208.438 54) rotate(0 0 22.35)"><path d="M0.38 0.65 C0.41 7.89, 0.26 36.84, 0.24 44.04 M-0.09 0.26 C-0.12 7.56, -0.09 37.32, -0.06 44.66" stroke="#1e1e1e" stroke-width="2" fill="none"></path></g><g transform="translate(208.438 54) rotate(0 0 22.35)"><path d="M-7.58 24.14 C-4.93 30.95, -3.15 37.38, -0.06 44.66 M-7.58 24.14 C-5.72 29.25, -4.3 33.5, -0.06 44.66" stroke="#1e1e1e" stroke-width="2" fill="none"></path></g><g transform="translate(208.438 54) rotate(0 0 22.35)"><path d="M7.37 24.12 C5.36 30.98, 2.48 37.43, -0.06 44.66 M7.37 24.12 C5.63 29.29, 3.45 33.55, -0.06 44.66" stroke="#1e1e1e" stroke-width="2" fill="none"></path></g></g><mask></mask><g stroke-linecap="round"><g transform="translate(208.438 148) rotate(0 0 22.349999999999994)"><path d="M0.15 0.74 C0.1 8.01, -0.08 37.31, -0.16 44.47 M-0.43 0.39 C-0.58 7.46, -0.88 36.37, -0.67 43.64" stroke="#1e1e1e" stroke-width="2" fill="none"></path></g><g transform="translate(208.438 148) rotate(0 0 22.349999999999994)"><path d="M-8.27 23.15 C-5.27 29.55, -2.75 35.93, -0.67 43.64 M-8.27 23.15 C-6.45 27.04, -5.6 31.32, -0.67 43.64" stroke="#1e1e1e" stroke-width="2" fill="none"></path></g><g transform="translate(208.438 148) rotate(0 0 22.349999999999994)"><path d="M6.68 23.06 C4.79 29.51, 2.43 35.92, -0.67 43.64 M6.68 23.06 C5.48 26.99, 3.31 31.29, -0.67 43.64" stroke="#1e1e1e" stroke-width="2" fill="none"></path></g></g><mask></mask><g stroke-linecap="round"><g transform="translate(208.438 242) rotate(0 0 22.349999999999994)"><path d="M0.24 0.34 C0.22 7.55, 0.4 36.48, 0.27 43.87 M-0.3 -0.21 C-0.4 7.04, -0.16 37.06, -0.03 44.41" stroke="#1e1e1e" stroke-width="2" fill="none"></path></g><g transform="translate(208.438 242) rotate(0 0 22.349999999999994)"><path d="M-7.74 23.96 C-5.15 31.97, -2.62 38.05, -0.03 44.41 M-7.74 23.96 C-4.97 31.38, -1.84 40.15, -0.03 44.41" stroke="#1e1e1e" stroke-width="2" fill="none"></path></g><g transform="translate(208.438 242) rotate(0 0 22.349999999999994)"><path d="M7.2 23.79 C4.28 31.89, 1.31 38.03, -0.03 44.41 M7.2 23.79 C4.19 31.3, 1.53 40.14, -0.03 44.41" stroke="#1e1e1e" stroke-width="2" fill="none"></path></g></g><mask></mask><g stroke-linecap="round"><g transform="translate(208.438 336) rotate(0 0 22.349999999999994)"><path d="M-0.16 0.77 C-0.24 7.92, -0.43 36.4, -0.33 43.66 M0.76 0.43 C0.85 7.61, 0.8 36.93, 0.74 44.09" stroke="#1e1e1e" stroke-width="2" fill="none"></path></g><g transform="translate(208.438 336) rotate(0 0 22.349999999999994)"><path d="M-6.64 23.52 C-3.69 29.68, -2.73 37.9, 0.74 44.09 M-6.64 23.52 C-4.66 30.21, -1.38 36.65, 0.74 44.09" stroke="#1e1e1e" stroke-width="2" fill="none"></path></g><g transform="translate(208.438 336) rotate(0 0 22.349999999999994)"><path d="M8.3 23.59 C6.35 29.71, 2.41 37.9, 0.74 44.09 M8.3 23.59 C5.36 30.22, 3.72 36.63, 0.74 44.09" stroke="#1e1e1e" stroke-width="2" fill="none"></path></g></g><mask></mask><g stroke-linecap="round"><g transform="translate(208.438 430) rotate(0 0 22.349999999999994)"><path d="M0.27 0.17 C0.14 7.56, -0.52 37.31, -0.54 44.68 M-0.26 1.2 C-0.25 8.46, 0.39 36.92, 0.42 43.96" stroke="#1e1e1e" stroke-width="2" fill="none"></path></g><g transform="translate(208.438 430) rotate(0 0 22.349999999999994)"><path d="M-7.35 23.54 C-5.3 29.57, -1.16 37.87, 0.42 43.96 M-7.35 23.54 C-4.87 30.85, -2.59 37.6, 0.42 43.96" stroke="#1e1e1e" stroke-width="2" fill="none"></path></g><g transform="translate(208.438 430) rotate(0 0 22.349999999999994)"><path d="M7.6 23.33 C4.51 29.47, 3.5 37.84, 0.42 43.96 M7.6 23.33 C5.02 30.64, 2.24 37.46, 0.42 43.96" stroke="#1e1e1e" stroke-width="2" fill="none"></path></g></g><mask></mask><g transform="translate(143.69756317138672 19.5) rotate(0 64.73993682861328 12.5)"><text x="64.73993682861328" y="0" font-family="Virgil, Segoe UI Emoji" font-size="20px" fill="#1e1e1e" text-anchor="middle" style="white-space: pre;" direction="ltr" dominant-baseline="text-before-edge">Input Prompt</text></g><g transform="translate(38.46766662597656 113.5) rotate(0 169.96983337402344 12.5)"><text x="169.96983337402344" y="0" font-family="Virgil, Segoe UI Emoji" font-size="20px" fill="#1e1e1e" text-anchor="middle" style="white-space: pre;" direction="ltr" dominant-baseline="text-before-edge">Model Predicts Token Probabilities</text></g><g transform="translate(77.4476318359375 207.5) rotate(0 130.9898681640625 12.5)"><text x="130.9898681640625" y="0" font-family="Virgil, Segoe UI Emoji" font-size="20px" fill="#1e1e1e" text-anchor="middle" style="white-space: pre;" direction="ltr" dominant-baseline="text-before-edge">Sort Tokens by Probability</text></g><g transform="translate(72.86761474609375 301.5) rotate(0 135.56988525390625 12.5)"><text x="135.56988525390625" y="0" font-family="Virgil, Segoe UI Emoji" font-size="20px" fill="#1e1e1e" text-anchor="middle" style="white-space: pre;" direction="ltr" dominant-baseline="text-before-edge">Sum Probabilities until &gt;= P</text></g><g transform="translate(64.79763793945312 395.5) rotate(0 143.63986206054688 12.5)"><text x="143.63986206054688" y="0" font-family="Virgil, Segoe UI Emoji" font-size="20px" fill="#1e1e1e" text-anchor="middle" style="white-space: pre;" direction="ltr" dominant-baseline="text-before-edge">Sample from Selected Tokens</text></g><g transform="translate(139.99756622314453 489.5) rotate(0 68.43993377685547 12.5)"><text x="68.43993377685547" y="0" font-family="Virgil, Segoe UI Emoji" font-size="20px" fill="#1e1e1e" text-anchor="middle" style="white-space: pre;" direction="ltr" dominant-baseline="text-before-edge">Output Token</text></g></svg>