<svg version="1.1" xmlns="http://www.w3.org/2000/svg" viewBox="0 0 672.9375 346" width="672.9375" height="346">
  <!-- svg-source:excalidraw -->
  
  <defs>
    <style class="style-fonts">
      @font-face {
        font-family: "Virgil";
        src: url("https://unpkg.com/@excalidraw/excalidraw@undefined/dist/excalidraw-assets/Virgil.woff2");
      }
      @font-face {
        font-family: "Cascadia";
        src: url("https://unpkg.com/@excalidraw/excalidraw@undefined/dist/excalidraw-assets/Cascadia.woff2");
      }
      @font-face {
        font-family: "Assistant";
        src: url("https://unpkg.com/@excalidraw/excalidraw@undefined/dist/excalidraw-assets/Assistant-Regular.woff2");
      }
    </style>
    
  </defs>
  <rect x="0" y="0" width="672.9375" height="346" fill="#ffffff"></rect><g stroke-linecap="round" transform="translate(288.71875 10) rotate(0 47.75 22)"><path d="M0 0 C29.01 -0.53, 58.25 0.92, 95.5 0 M0 0 C21.37 0.08, 43.71 -1.23, 95.5 0 M95.5 0 C95.17 13.36, 95.95 23.32, 95.5 44 M95.5 0 C94.23 14.65, 94.53 28.49, 95.5 44 M95.5 44 C55.95 46.11, 19.91 45.14, 0 44 M95.5 44 C58.86 43.43, 23.53 43.19, 0 44 M0 44 C-0.52 32.05, -2.07 18.28, 0 0 M0 44 C0.36 36.02, -0.27 25.39, 0 0" stroke="#1e1e1e" stroke-width="2" fill="none"></path></g><g stroke-linecap="round" transform="translate(155.8046875 104) rotate(0 63.5078125 22)"><path d="M0 0 C26.17 0.19, 54.57 -1.41, 127.02 0 M0 0 C42.2 0.65, 82.56 0.22, 127.02 0 M127.02 0 C128.72 14.38, 127.01 28.3, 127.02 44 M127.02 0 C127.84 9.67, 127.84 21.63, 127.02 44 M127.02 44 C79.74 42.27, 30.23 44.24, 0 44 M127.02 44 C89.21 42.65, 51.49 43, 0 44 M0 44 C1.57 25.12, 1.13 7.62, 0 0 M0 44 C0.59 33.86, -1.17 25.82, 0 0" stroke="#1e1e1e" stroke-width="2" fill="none"></path></g><g stroke-linecap="round" transform="translate(507.2734375 104) rotate(0 63.5078125 22)"><path d="M0 0 C34.93 1.17, 68.09 1.06, 127.02 0 M0 0 C44.28 -1.45, 88.06 -0.5, 127.02 0 M127.02 0 C127.3 13.19, 127.22 25.09, 127.02 44 M127.02 0 C125.9 14.22, 127.51 27.66, 127.02 44 M127.02 44 C77.22 45.1, 29.87 44.71, 0 44 M127.02 44 C91.72 43, 57.08 44.49, 0 44 M0 44 C-1.65 33.45, -1.95 19.31, 0 0 M0 44 C-0.63 27.06, 0.84 12.2, 0 0" stroke="#1e1e1e" stroke-width="2" fill="none"></path></g><g stroke-linecap="round" transform="translate(10 198) rotate(0 92.15625 22)"><path d="M0 0 C55.66 -1.59, 110.55 0.81, 184.31 0 M0 0 C46.31 -0.5, 94.33 -0.15, 184.31 0 M184.31 0 C184.68 12.58, 183.39 24.68, 184.31 44 M184.31 0 C185.47 9.78, 185.49 18.58, 184.31 44 M184.31 44 C147.67 45.08, 110.34 43.08, 0 44 M184.31 44 C143.46 43.45, 104.67 43.04, 0 44 M0 44 C0.66 29.09, -1.98 19.42, 0 0 M0 44 C-1.28 31.66, -0.09 16.87, 0 0" stroke="#1e1e1e" stroke-width="2" fill="none"></path></g><g stroke-linecap="round" transform="translate(244.3125 198) rotate(0 92.15625 22)"><path d="M0 0 C46.65 -0.06, 97.13 -1.51, 184.31 0 M0 0 C64.86 1.6, 130.43 1.21, 184.31 0 M184.31 0 C184.69 15.65, 184.49 31.91, 184.31 44 M184.31 0 C184.95 17.57, 184.9 32.51, 184.31 44 M184.31 44 C118.83 44.17, 49.85 42.64, 0 44 M184.31 44 C135.16 43.84, 85.57 42.87, 0 44 M0 44 C-1.6 26.05, 1.66 11.44, 0 0 M0 44 C1.12 27.24, -0.49 9.73, 0 0" stroke="#1e1e1e" stroke-width="2" fill="none"></path></g><g stroke-linecap="round" transform="translate(478.625 198) rotate(0 92.15625 22)"><path d="M0 0 C57.4 2.28, 112.78 2.4, 184.31 0 M0 0 C56.93 0.64, 113.3 1.5, 184.31 0 M184.31 0 C183.02 14.12, 182.33 29.66, 184.31 44 M184.31 0 C185.49 11.09, 183.67 21.04, 184.31 44 M184.31 44 C133.2 44.89, 80.66 44.72, 0 44 M184.31 44 C135.72 43.68, 85.24 44.76, 0 44 M0 44 C-1.89 35.78, -0.22 26.72, 0 0 M0 44 C0.68 32.82, 0.22 23.84, 0 0" stroke="#1e1e1e" stroke-width="2" fill="none"></path></g><g stroke-linecap="round" transform="translate(259.03125 292) rotate(0 77.4375 22)"><path d="M0 0 C52.62 -1.33, 104.4 -0.28, 154.88 0 M0 0 C34.57 -0.49, 70 -0.1, 154.88 0 M154.88 0 C155.04 11.21, 156.55 25.02, 154.88 44 M154.88 0 C156.17 15.73, 155.92 33.22, 154.88 44 M154.88 44 C105.62 42.29, 56.68 43.29, 0 44 M154.88 44 C116.99 45.35, 80.58 44.57, 0 44 M0 44 C1.73 28.67, 2.19 12.09, 0 0 M0 44 C-1.14 34.55, 0.29 25.99, 0 0" stroke="#1e1e1e" stroke-width="2" fill="none"></path></g><g stroke-linecap="round"><g transform="translate(288.719 51.156) rotate(0 -34.703 23.772000000000002)"><path d="M0.58 -0.04 C-10.74 4.48, -56.94 20.16, -68.76 27.94 C-80.58 35.72, -70.26 43.44, -70.33 46.62 M-0.58 2.3 C-11.92 7, -58.15 21.96, -69.37 29.53 C-80.59 37.1, -68.01 44.62, -67.92 47.72" stroke="#1e1e1e" stroke-width="2" fill="none"></path></g><g transform="translate(288.719 51.156) rotate(0 -34.703 23.772000000000002)"><path d="M-75.54 41.89 C-74.21 43.7, -71.97 43.78, -67.92 47.72 M-75.54 41.89 C-73.61 43.85, -71.4 44.98, -67.92 47.72" stroke="#1e1e1e" stroke-width="2" fill="none"></path></g><g transform="translate(288.719 51.156) rotate(0 -34.703 23.772000000000002)"><path d="M-70.01 38.35 C-69.94 41, -68.95 41.89, -67.92 47.72 M-70.01 38.35 C-69.54 41.24, -68.79 43.32, -67.92 47.72" stroke="#1e1e1e" stroke-width="2" fill="none"></path></g></g><mask></mask><g stroke-linecap="round"><g transform="translate(384.219 41.578) rotate(0 93.28099999999998 28.561000000000003)"><path d="M-0.54 1.15 C30.52 7.05, 155.54 27.22, 186.66 36.5 C217.77 45.78, 186.16 53.53, 186.14 56.84 M1.38 0.44 C32.26 6.42, 155.13 27.92, 185.76 37.55 C216.39 47.19, 184.98 54.98, 185.16 58.27" stroke="#1e1e1e" stroke-width="2" fill="none"></path></g><g transform="translate(384.219 41.578) rotate(0 93.28099999999998 28.561000000000003)"><path d="M190.65 50.4 C189.4 53.03, 186.35 55.21, 185.16 58.27 M190.65 50.4 C189.31 52.98, 187.15 55.47, 185.16 58.27" stroke="#1e1e1e" stroke-width="2" fill="none"></path></g><g transform="translate(384.219 41.578) rotate(0 93.28099999999998 28.561000000000003)"><path d="M194.42 55.77 C191.91 56.63, 187.62 57.04, 185.16 58.27 M194.42 55.77 C191.88 56.64, 188.52 57.42, 185.16 58.27" stroke="#1e1e1e" stroke-width="2" fill="none"></path></g></g><mask></mask><g stroke-linecap="round"><g transform="translate(164.473 148.5) rotate(0 -31.158500000000004 21.849999999999994)"><path d="M0.65 0.09 C-9.99 4.2, -52.78 16.81, -63.24 24.08 C-73.7 31.35, -62.21 40.26, -62.1 43.7 M-0.47 -0.9 C-10.79 3.42, -50.63 17.74, -61.01 25.4 C-71.39 33.05, -62.51 42.13, -62.75 45.01" stroke="#1e1e1e" stroke-width="2" fill="none"></path></g><g transform="translate(164.473 148.5) rotate(0 -31.158500000000004 21.849999999999994)"><path d="M-68.92 37.66 C-66.73 39.45, -64.99 42.92, -62.75 45.01 M-68.92 37.66 C-67 39.81, -65.16 41.71, -62.75 45.01" stroke="#1e1e1e" stroke-width="2" fill="none"></path></g><g transform="translate(164.473 148.5) rotate(0 -31.158500000000004 21.849999999999994)"><path d="M-62.75 35.41 C-62.72 38.02, -63.13 42.27, -62.75 45.01 M-62.75 35.41 C-62.68 38.29, -62.7 40.86, -62.75 45.01" stroke="#1e1e1e" stroke-width="2" fill="none"></path></g></g><mask></mask><g stroke-linecap="round"><g transform="translate(274.152 148) rotate(0 31.158500000000004 22.349999999999994)"><path d="M0.09 -0.42 C10.5 3.59, 51.53 17.82, 61.9 25.22 C72.27 32.62, 62.07 40.75, 62.31 43.95 M-1.31 1.71 C8.94 5.28, 50.25 15.97, 60.73 23.21 C71.21 30.45, 60.98 41.4, 61.55 45.14" stroke="#1e1e1e" stroke-width="2" fill="none"></path></g><g transform="translate(274.152 148) rotate(0 31.158500000000004 22.349999999999994)"><path d="M61.08 35.55 C60.51 37.66, 61.55 40.45, 61.55 45.14 M61.08 35.55 C61.29 38.3, 61.11 40.93, 61.55 45.14" stroke="#1e1e1e" stroke-width="2" fill="none"></path></g><g transform="translate(274.152 148) rotate(0 31.158500000000004 22.349999999999994)"><path d="M67.35 37.49 C65.17 39.12, 64.6 41.4, 61.55 45.14 M67.35 37.49 C65.8 39.71, 63.86 41.8, 61.55 45.14" stroke="#1e1e1e" stroke-width="2" fill="none"></path></g></g><mask></mask><g stroke-linecap="round"><g transform="translate(570.781 148) rotate(0 0 22.349999999999994)"><path d="M-0.42 0.31 C-0.45 7.58, 0.05 36.81, 0.1 44.2 M0.36 -0.27 C0.24 7.1, -0.13 37.55, -0.28 44.9" stroke="#1e1e1e" stroke-width="2" fill="none"></path></g><g transform="translate(570.781 148) rotate(0 0 22.349999999999994)"><path d="M-7.43 24.25 C-5.24 31.77, -2.36 38.68, -0.28 44.9 M-7.43 24.25 C-4.58 31.88, -1.88 39.66, -0.28 44.9" stroke="#1e1e1e" stroke-width="2" fill="none"></path></g><g transform="translate(570.781 148) rotate(0 0 22.349999999999994)"><path d="M7.51 24.48 C4.41 31.86, 2.01 38.69, -0.28 44.9 M7.51 24.48 C4.6 32.02, 1.56 39.71, -0.28 44.9" stroke="#1e1e1e" stroke-width="2" fill="none"></path></g></g><mask></mask><g stroke-linecap="round"><g transform="translate(102.156 242) rotate(0 75.5895 27.712500000000006)"><path d="M0.08 0.72 C-0.02 4.92, -25.36 15.68, 0 24.75 C25.35 33.82, 127 50.09, 152.2 55.15 M2.06 -0.21 C1.79 4.25, -25.94 16.69, -0.95 26.16 C24.03 35.62, 126.57 51.56, 151.97 56.58" stroke="#1e1e1e" stroke-width="2" fill="none"></path></g><g transform="translate(102.156 242) rotate(0 75.5895 27.712500000000006)"><path d="M127.35 60.91 C135.33 59.66, 142.13 60.03, 151.97 56.58 M127.35 60.91 C134.55 59.54, 142.05 58.92, 151.97 56.58" stroke="#1e1e1e" stroke-width="2" fill="none"></path></g><g transform="translate(102.156 242) rotate(0 75.5895 27.712500000000006)"><path d="M130.33 44.07 C137.26 47.99, 143.15 53.55, 151.97 56.58 M130.33 44.07 C136.58 48.07, 143.13 52.82, 151.97 56.58" stroke="#1e1e1e" stroke-width="2" fill="none"></path></g></g><mask></mask><g stroke-linecap="round"><g transform="translate(336.469 242) rotate(0 0 22.349999999999994)"><path d="M0.1 0.5 C0.15 7.89, -0.11 37.38, -0.11 44.67 M-0.51 0.02 C-0.51 7.29, -0.66 36.48, -0.6 43.94" stroke="#1e1e1e" stroke-width="2" fill="none"></path></g><g transform="translate(336.469 242) rotate(0 0 22.349999999999994)"><path d="M-8.08 23.41 C-6.45 27.78, -3.93 32.76, -0.6 43.94 M-8.08 23.41 C-5.8 29.1, -3.18 35.41, -0.6 43.94" stroke="#1e1e1e" stroke-width="2" fill="none"></path></g><g transform="translate(336.469 242) rotate(0 0 22.349999999999994)"><path d="M6.87 23.41 C5.16 27.79, 4.35 32.77, -0.6 43.94 M6.87 23.41 C4.67 29.05, 2.81 35.36, -0.6 43.94" stroke="#1e1e1e" stroke-width="2" fill="none"></path></g></g><mask></mask><g stroke-linecap="round"><g transform="translate(570.781 242) rotate(0 -75.58899999999997 27.712500000000006)"><path d="M-0.5 0.25 C-0.18 4.34, 26.13 16.08, 1.02 25.22 C-24.09 34.37, -125.68 50.14, -151.18 55.1 M-1.96 -0.92 C-1.67 2.75, 25.61 13.65, 0.61 23.22 C-24.39 32.79, -126.49 51.03, -151.95 56.51" stroke="#1e1e1e" stroke-width="2" fill="none"></path></g><g transform="translate(570.781 242) rotate(0 -75.58899999999997 27.712500000000006)"><path d="M-130.56 43.57 C-136.62 48.7, -141.5 50.42, -151.95 56.51 M-130.56 43.57 C-138.36 48.46, -144.78 52.52, -151.95 56.51" stroke="#1e1e1e" stroke-width="2" fill="none"></path></g><g transform="translate(570.781 242) rotate(0 -75.58899999999997 27.712500000000006)"><path d="M-127.24 60.34 C-134.21 61.03, -139.97 58.31, -151.95 56.51 M-127.24 60.34 C-135.98 59.96, -143.44 58.74, -151.95 56.51" stroke="#1e1e1e" stroke-width="2" fill="none"></path></g></g><mask></mask><g transform="translate(303.1087875366211 19.5) rotate(0 33.359962463378906 12.5)"><text x="33.359962463378906" y="0" font-family="Virgil, Segoe UI Emoji" font-size="20px" fill="#1e1e1e" text-anchor="middle" style="white-space: pre;" direction="ltr" dominant-baseline="text-before-edge">Prompt</text></g><g transform="translate(171.80254364013672 113.5) rotate(0 47.50995635986328 12.5)"><text x="47.50995635986328" y="0" font-family="Virgil, Segoe UI Emoji" font-size="20px" fill="#1e1e1e" text-anchor="middle" style="white-space: pre;" direction="ltr" dominant-baseline="text-before-edge">Thought 1</text></g><g transform="translate(518.8612976074219 113.5) rotate(0 51.919952392578125 12.5)"><text x="51.919952392578125" y="0" font-family="Virgil, Segoe UI Emoji" font-size="20px" fill="#1e1e1e" text-anchor="middle" style="white-space: pre;" direction="ltr" dominant-baseline="text-before-edge">Thought 2</text></g><g transform="translate(34.746315002441406 207.5) rotate(0 67.4099349975586 12.5)"><text x="67.4099349975586" y="0" font-family="Virgil, Segoe UI Emoji" font-size="20px" fill="#1e1e1e" text-anchor="middle" style="white-space: pre;" direction="ltr" dominant-baseline="text-before-edge">Subthought 1.1</text></g><g transform="translate(264.64881896972656 207.5) rotate(0 71.81993103027344 12.5)"><text x="71.81993103027344" y="0" font-family="Virgil, Segoe UI Emoji" font-size="20px" fill="#1e1e1e" text-anchor="middle" style="white-space: pre;" direction="ltr" dominant-baseline="text-before-edge">Subthought 1.2</text></g><g transform="translate(498.96131896972656 207.5) rotate(0 71.81993103027344 12.5)"><text x="71.81993103027344" y="0" font-family="Virgil, Segoe UI Emoji" font-size="20px" fill="#1e1e1e" text-anchor="middle" style="white-space: pre;" direction="ltr" dominant-baseline="text-before-edge">Subthought 2.1</text></g><g transform="translate(274.7188034057617 301.5) rotate(0 61.74994659423828 12.5)"><text x="61.74994659423828" y="0" font-family="Virgil, Segoe UI Emoji" font-size="20px" fill="#1e1e1e" text-anchor="middle" style="white-space: pre;" direction="ltr" dominant-baseline="text-before-edge">Final Output</text></g></svg>